<svg xmlns="http://www.w3.org/2000/svg" xmlns:xlink="http://www.w3.org/1999/xlink" width="146" zoomAndPan="magnify" viewBox="0 0 109.5 36.000001" height="48" preserveAspectRatio="xMidYMid meet" version="1.0"><defs><g/></defs><g fill="#ffffff" fill-opacity="1"><g transform="translate(11.286789, 30.298085)"><g><path d="M 21.375 -22.328125 L 21.375 -21.6875 C 20.914062 -21.519531 20.425781 -21.148438 19.90625 -20.578125 C 19.394531 -20.015625 18.921875 -19.132812 18.484375 -17.9375 L 11.828125 0.0625 C 11.660156 0.0390625 11.476562 0.03125 11.28125 0.03125 C 11.09375 0.03125 10.90625 0.03125 10.71875 0.03125 C 10.550781 0.03125 10.375 0.03125 10.1875 0.03125 C 10 0.03125 9.820312 0.0390625 9.65625 0.0625 L 1.609375 -19.671875 C 1.316406 -20.429688 0.988281 -20.953125 0.625 -21.234375 C 0.269531 -21.515625 -0.0625 -21.664062 -0.375 -21.6875 L -0.375 -22.328125 C 0.25 -22.304688 0.988281 -22.285156 1.84375 -22.265625 C 2.695312 -22.242188 3.554688 -22.234375 4.421875 -22.234375 C 5.378906 -22.234375 6.285156 -22.242188 7.140625 -22.265625 C 7.992188 -22.285156 8.679688 -22.304688 9.203125 -22.328125 L 9.203125 -21.6875 C 8.535156 -21.664062 8.007812 -21.585938 7.625 -21.453125 C 7.25 -21.316406 7.039062 -21.066406 7 -20.703125 C 6.957031 -20.335938 7.082031 -19.785156 7.375 -19.046875 L 13.109375 -4.453125 L 12.453125 -3.65625 L 16.8125 -15.390625 C 17.375 -16.960938 17.664062 -18.203125 17.6875 -19.109375 C 17.707031 -20.015625 17.484375 -20.664062 17.015625 -21.0625 C 16.554688 -21.457031 15.898438 -21.664062 15.046875 -21.6875 L 15.046875 -22.328125 C 15.753906 -22.304688 16.421875 -22.285156 17.046875 -22.265625 C 17.679688 -22.242188 18.328125 -22.234375 18.984375 -22.234375 C 19.441406 -22.234375 19.875 -22.242188 20.28125 -22.265625 C 20.695312 -22.285156 21.0625 -22.304688 21.375 -22.328125 Z M 21.375 -22.328125 "/></g></g></g><g fill="#ffffff" fill-opacity="1"><g transform="translate(32.348074, 30.298085)"><g><path d="M 4.859375 -24.4375 C 5.742188 -24.4375 6.441406 -24.21875 6.953125 -23.78125 C 7.460938 -23.351562 7.71875 -22.765625 7.71875 -22.015625 C 7.71875 -21.253906 7.460938 -20.65625 6.953125 -20.21875 C 6.441406 -19.789062 5.742188 -19.578125 4.859375 -19.578125 C 3.972656 -19.578125 3.269531 -19.789062 2.75 -20.21875 C 2.238281 -20.65625 1.984375 -21.253906 1.984375 -22.015625 C 1.984375 -22.765625 2.238281 -23.351562 2.75 -23.78125 C 3.269531 -24.21875 3.972656 -24.4375 4.859375 -24.4375 Z M 7.3125 -16.65625 L 7.3125 -2.9375 C 7.3125 -2.050781 7.460938 -1.445312 7.765625 -1.125 C 8.078125 -0.8125 8.597656 -0.65625 9.328125 -0.65625 L 9.328125 0 C 8.953125 -0.0195312 8.363281 -0.046875 7.5625 -0.078125 C 6.769531 -0.109375 5.960938 -0.125 5.140625 -0.125 C 4.316406 -0.125 3.484375 -0.109375 2.640625 -0.078125 C 1.804688 -0.046875 1.175781 -0.0195312 0.75 0 L 0.75 -0.65625 C 1.488281 -0.65625 2.007812 -0.8125 2.3125 -1.125 C 2.625 -1.445312 2.78125 -2.050781 2.78125 -2.9375 L 2.78125 -12.859375 C 2.78125 -13.804688 2.632812 -14.503906 2.34375 -14.953125 C 2.0625 -15.410156 1.53125 -15.640625 0.75 -15.640625 L 0.75 -16.296875 C 1.425781 -16.234375 2.082031 -16.203125 2.71875 -16.203125 C 3.59375 -16.203125 4.414062 -16.238281 5.1875 -16.3125 C 5.957031 -16.382812 6.664062 -16.5 7.3125 -16.65625 Z M 7.3125 -16.65625 "/></g></g></g><g fill="#ffffff" fill-opacity="1"><g transform="translate(42.279667, 30.298085)"><g><path d="M 11.609375 -16.75 C 12.273438 -16.75 12.816406 -16.601562 13.234375 -16.3125 C 13.660156 -16.03125 13.972656 -15.664062 14.171875 -15.21875 C 14.367188 -14.78125 14.46875 -14.320312 14.46875 -13.84375 C 14.46875 -13.0625 14.238281 -12.421875 13.78125 -11.921875 C 13.332031 -11.429688 12.742188 -11.1875 12.015625 -11.1875 C 11.273438 -11.1875 10.703125 -11.367188 10.296875 -11.734375 C 9.890625 -12.109375 9.6875 -12.601562 9.6875 -13.21875 C 9.6875 -13.800781 9.816406 -14.285156 10.078125 -14.671875 C 10.335938 -15.066406 10.664062 -15.398438 11.0625 -15.671875 C 10.769531 -15.753906 10.476562 -15.742188 10.1875 -15.640625 C 9.78125 -15.578125 9.398438 -15.410156 9.046875 -15.140625 C 8.691406 -14.878906 8.382812 -14.554688 8.125 -14.171875 C 7.875 -13.785156 7.675781 -13.363281 7.53125 -12.90625 C 7.382812 -12.457031 7.3125 -12.023438 7.3125 -11.609375 L 7.3125 -3.25 C 7.3125 -2.238281 7.554688 -1.550781 8.046875 -1.1875 C 8.546875 -0.832031 9.289062 -0.65625 10.28125 -0.65625 L 10.28125 0 C 9.789062 -0.0195312 9.082031 -0.046875 8.15625 -0.078125 C 7.238281 -0.109375 6.273438 -0.125 5.265625 -0.125 C 4.421875 -0.125 3.566406 -0.109375 2.703125 -0.078125 C 1.847656 -0.046875 1.195312 -0.0195312 0.75 0 L 0.75 -0.65625 C 1.488281 -0.65625 2.007812 -0.8125 2.3125 -1.125 C 2.625 -1.445312 2.78125 -2.050781 2.78125 -2.9375 L 2.78125 -12.859375 C 2.78125 -13.804688 2.632812 -14.503906 2.34375 -14.953125 C 2.0625 -15.410156 1.53125 -15.640625 0.75 -15.640625 L 0.75 -16.296875 C 1.425781 -16.234375 2.082031 -16.203125 2.71875 -16.203125 C 3.59375 -16.203125 4.414062 -16.238281 5.1875 -16.3125 C 5.957031 -16.382812 6.664062 -16.5 7.3125 -16.65625 L 7.3125 -13.71875 C 7.5625 -14.28125 7.894531 -14.789062 8.3125 -15.25 C 8.738281 -15.71875 9.222656 -16.082031 9.765625 -16.34375 C 10.316406 -16.613281 10.929688 -16.75 11.609375 -16.75 Z M 11.609375 -16.75 "/></g></g></g><g fill="#ffffff" fill-opacity="1"><g transform="translate(57.003649, 30.298085)"><g><path d="M 14 -16.453125 L 6.109375 -0.46875 L 7.75 -0.46875 C 8.570312 -0.46875 9.34375 -0.640625 10.0625 -0.984375 C 10.789062 -1.335938 11.398438 -1.921875 11.890625 -2.734375 C 12.390625 -3.554688 12.691406 -4.679688 12.796875 -6.109375 L 13.46875 -6.109375 C 13.46875 -4.578125 13.476562 -3.320312 13.5 -2.34375 C 13.519531 -1.375 13.550781 -0.550781 13.59375 0.125 C 12.644531 0.0820312 11.65625 0.0507812 10.625 0.03125 C 9.59375 0.0078125 8.5625 0 7.53125 0 C 6.457031 0 5.351562 0.015625 4.21875 0.046875 C 3.082031 0.078125 2.003906 0.113281 0.984375 0.15625 L 8.859375 -15.828125 L 7.09375 -15.828125 C 6.25 -15.828125 5.472656 -15.648438 4.765625 -15.296875 C 4.066406 -14.953125 3.488281 -14.363281 3.03125 -13.53125 C 2.582031 -12.707031 2.296875 -11.59375 2.171875 -10.1875 L 1.515625 -10.1875 C 1.515625 -11.738281 1.503906 -13 1.484375 -13.96875 C 1.460938 -14.9375 1.429688 -15.753906 1.390625 -16.421875 C 2.359375 -16.378906 3.351562 -16.347656 4.375 -16.328125 C 5.40625 -16.304688 6.425781 -16.296875 7.4375 -16.296875 C 8.53125 -16.296875 9.640625 -16.3125 10.765625 -16.34375 C 11.890625 -16.375 12.96875 -16.410156 14 -16.453125 Z M 14 -16.453125 "/></g></g></g><g fill="#ffffff" fill-opacity="1"><g transform="translate(71.948337, 30.298085)"><g><path d="M 5.109375 0.21875 C 4.160156 0.21875 3.367188 0.0390625 2.734375 -0.3125 C 2.109375 -0.664062 1.648438 -1.144531 1.359375 -1.75 C 1.066406 -2.351562 0.921875 -3.007812 0.921875 -3.71875 C 0.921875 -4.625 1.125 -5.359375 1.53125 -5.921875 C 1.9375 -6.492188 2.460938 -6.957031 3.109375 -7.3125 C 3.765625 -7.664062 4.457031 -7.957031 5.1875 -8.1875 C 5.914062 -8.425781 6.609375 -8.65625 7.265625 -8.875 C 7.929688 -9.09375 8.46875 -9.351562 8.875 -9.65625 C 9.28125 -9.96875 9.484375 -10.363281 9.484375 -10.84375 L 9.484375 -13.3125 C 9.484375 -13.851562 9.394531 -14.335938 9.21875 -14.765625 C 9.039062 -15.203125 8.765625 -15.535156 8.390625 -15.765625 C 8.023438 -15.992188 7.550781 -16.109375 6.96875 -16.109375 C 6.550781 -16.109375 6.128906 -16.050781 5.703125 -15.9375 C 5.285156 -15.820312 4.941406 -15.628906 4.671875 -15.359375 C 5.253906 -15.148438 5.707031 -14.828125 6.03125 -14.390625 C 6.363281 -13.960938 6.53125 -13.472656 6.53125 -12.921875 C 6.53125 -12.210938 6.28125 -11.644531 5.78125 -11.21875 C 5.289062 -10.800781 4.707031 -10.59375 4.03125 -10.59375 C 3.28125 -10.59375 2.707031 -10.828125 2.3125 -11.296875 C 1.925781 -11.773438 1.734375 -12.347656 1.734375 -13.015625 C 1.734375 -13.628906 1.882812 -14.132812 2.1875 -14.53125 C 2.5 -14.9375 2.925781 -15.316406 3.46875 -15.671875 C 4.050781 -16.003906 4.757812 -16.265625 5.59375 -16.453125 C 6.425781 -16.648438 7.328125 -16.75 8.296875 -16.75 C 9.265625 -16.75 10.132812 -16.644531 10.90625 -16.4375 C 11.6875 -16.238281 12.335938 -15.878906 12.859375 -15.359375 C 13.347656 -14.867188 13.664062 -14.269531 13.8125 -13.5625 C 13.957031 -12.863281 14.03125 -11.976562 14.03125 -10.90625 L 14.03125 -2.328125 C 14.03125 -1.804688 14.082031 -1.445312 14.1875 -1.25 C 14.289062 -1.050781 14.46875 -0.953125 14.71875 -0.953125 C 14.914062 -0.953125 15.101562 -1.003906 15.28125 -1.109375 C 15.457031 -1.210938 15.648438 -1.335938 15.859375 -1.484375 L 16.171875 -0.953125 C 15.734375 -0.566406 15.222656 -0.273438 14.640625 -0.078125 C 14.066406 0.117188 13.421875 0.21875 12.703125 0.21875 C 11.929688 0.21875 11.3125 0.109375 10.84375 -0.109375 C 10.382812 -0.328125 10.050781 -0.625 9.84375 -1 C 9.644531 -1.382812 9.546875 -1.828125 9.546875 -2.328125 C 9.046875 -1.535156 8.4375 -0.910156 7.71875 -0.453125 C 7.007812 -0.00390625 6.140625 0.21875 5.109375 0.21875 Z M 7.34375 -1.796875 C 7.769531 -1.796875 8.15625 -1.894531 8.5 -2.09375 C 8.84375 -2.289062 9.171875 -2.625 9.484375 -3.09375 L 9.484375 -9.546875 C 9.296875 -9.234375 9.035156 -8.953125 8.703125 -8.703125 C 8.367188 -8.453125 8.007812 -8.191406 7.625 -7.921875 C 7.25 -7.660156 6.882812 -7.375 6.53125 -7.0625 C 6.1875 -6.75 5.910156 -6.359375 5.703125 -5.890625 C 5.492188 -5.429688 5.390625 -4.875 5.390625 -4.21875 C 5.390625 -3.40625 5.566406 -2.796875 5.921875 -2.390625 C 6.285156 -1.992188 6.757812 -1.796875 7.34375 -1.796875 Z M 7.34375 -1.796875 "/></g></g></g><g fill="#a3e635" fill-opacity="1"><g transform="translate(88.214561, 29.354741)"><g><path d="M 5.515625 -5.71875 C 6.578125 -5.71875 7.421875 -5.4375 8.046875 -4.875 C 8.671875 -4.320312 8.984375 -3.554688 8.984375 -2.578125 C 8.984375 -1.597656 8.671875 -0.828125 8.046875 -0.265625 C 7.421875 0.296875 6.578125 0.578125 5.515625 0.578125 C 4.453125 0.578125 3.609375 0.296875 2.984375 -0.265625 C 2.359375 -0.828125 2.046875 -1.597656 2.046875 -2.578125 C 2.046875 -3.554688 2.359375 -4.320312 2.984375 -4.875 C 3.609375 -5.4375 4.453125 -5.71875 5.515625 -5.71875 Z M 5.515625 -5.71875 "/></g></g></g></svg>
