<svg xmlns="http://www.w3.org/2000/svg" xmlns:xlink="http://www.w3.org/1999/xlink" width="500" zoomAndPan="magnify" viewBox="0 0 375 374.999991" height="500" preserveAspectRatio="xMidYMid meet" version="1.0"><defs><g/></defs><g fill="#ffffff" fill-opacity="1"><g transform="translate(22.217004, 237.374984)"><g><path d="M 83.390625 -87.078125 L 83.390625 -84.625 C 81.585938 -83.96875 79.679688 -82.53125 77.671875 -80.3125 C 75.660156 -78.101562 73.796875 -74.660156 72.078125 -69.984375 L 46.125 0.25 C 45.46875 0.164062 44.769531 0.125 44.03125 0.125 C 43.289062 0.125 42.550781 0.125 41.8125 0.125 C 41.164062 0.125 40.472656 0.125 39.734375 0.125 C 38.992188 0.125 38.296875 0.164062 37.640625 0.25 L 6.265625 -76.75 C 5.117188 -79.707031 3.847656 -81.738281 2.453125 -82.84375 C 1.066406 -83.945312 -0.238281 -84.539062 -1.46875 -84.625 L -1.46875 -87.078125 C 0.988281 -86.992188 3.875 -86.910156 7.1875 -86.828125 C 10.507812 -86.753906 13.851562 -86.71875 17.21875 -86.71875 C 20.988281 -86.71875 24.535156 -86.753906 27.859375 -86.828125 C 31.179688 -86.910156 33.867188 -86.992188 35.921875 -87.078125 L 35.921875 -84.625 C 33.296875 -84.539062 31.242188 -84.234375 29.765625 -83.703125 C 28.285156 -83.171875 27.460938 -82.1875 27.296875 -80.75 C 27.140625 -79.3125 27.632812 -77.160156 28.78125 -74.296875 L 51.171875 -17.34375 L 48.578125 -14.265625 L 65.5625 -60.03125 C 67.769531 -66.175781 68.914062 -71.007812 69 -74.53125 C 69.082031 -78.0625 68.222656 -80.601562 66.421875 -82.15625 C 64.617188 -83.71875 62.035156 -84.539062 58.671875 -84.625 L 58.671875 -87.078125 C 61.460938 -86.992188 64.085938 -86.910156 66.546875 -86.828125 C 69.003906 -86.753906 71.503906 -86.71875 74.046875 -86.71875 C 75.847656 -86.71875 77.546875 -86.753906 79.140625 -86.828125 C 80.742188 -86.910156 82.160156 -86.992188 83.390625 -87.078125 Z M 83.390625 -87.078125 "/></g></g></g><g fill="#ffffff" fill-opacity="1"><g transform="translate(104.381012, 237.374984)"><g><path d="M 18.9375 -95.328125 C 22.382812 -95.328125 25.113281 -94.484375 27.125 -92.796875 C 29.132812 -91.117188 30.140625 -88.804688 30.140625 -85.859375 C 30.140625 -82.898438 29.132812 -80.582031 27.125 -78.90625 C 25.113281 -77.226562 22.382812 -76.390625 18.9375 -76.390625 C 15.5 -76.390625 12.773438 -77.226562 10.765625 -78.90625 C 8.753906 -80.582031 7.75 -82.898438 7.75 -85.859375 C 7.75 -88.804688 8.753906 -91.117188 10.765625 -92.796875 C 12.773438 -94.484375 15.5 -95.328125 18.9375 -95.328125 Z M 28.53125 -64.9375 L 28.53125 -11.4375 C 28.53125 -7.988281 29.125 -5.648438 30.3125 -4.421875 C 31.507812 -3.191406 33.539062 -2.578125 36.40625 -2.578125 L 36.40625 0 C 34.925781 -0.0820312 32.628906 -0.179688 29.515625 -0.296875 C 26.398438 -0.421875 23.242188 -0.484375 20.046875 -0.484375 C 16.847656 -0.484375 13.609375 -0.421875 10.328125 -0.296875 C 7.046875 -0.179688 4.585938 -0.0820312 2.953125 0 L 2.953125 -2.578125 C 5.816406 -2.578125 7.84375 -3.191406 9.03125 -4.421875 C 10.226562 -5.648438 10.828125 -7.988281 10.828125 -11.4375 L 10.828125 -50.1875 C 10.828125 -53.875 10.269531 -56.597656 9.15625 -58.359375 C 8.050781 -60.128906 5.984375 -61.015625 2.953125 -61.015625 L 2.953125 -63.59375 C 5.578125 -63.34375 8.117188 -63.21875 10.578125 -63.21875 C 14.023438 -63.21875 17.242188 -63.359375 20.234375 -63.640625 C 23.222656 -63.929688 25.988281 -64.363281 28.53125 -64.9375 Z M 28.53125 -64.9375 "/></g></g></g><g fill="#ffffff" fill-opacity="1"><g transform="translate(143.126012, 237.374984)"><g><path d="M 45.265625 -65.3125 C 47.890625 -65.3125 50.019531 -64.753906 51.65625 -63.640625 C 53.300781 -62.535156 54.507812 -61.125 55.28125 -59.40625 C 56.0625 -57.6875 56.453125 -55.882812 56.453125 -54 C 56.453125 -50.96875 55.570312 -48.488281 53.8125 -46.5625 C 52.050781 -44.632812 49.734375 -43.671875 46.859375 -43.671875 C 43.992188 -43.671875 41.757812 -44.382812 40.15625 -45.8125 C 38.5625 -47.25 37.765625 -49.15625 37.765625 -51.53125 C 37.765625 -53.832031 38.273438 -55.738281 39.296875 -57.25 C 40.328125 -58.769531 41.617188 -60.0625 43.171875 -61.125 C 42.023438 -61.457031 40.878906 -61.421875 39.734375 -61.015625 C 38.171875 -60.765625 36.691406 -60.125 35.296875 -59.09375 C 33.898438 -58.070312 32.710938 -56.800781 31.734375 -55.28125 C 30.753906 -53.769531 29.972656 -52.128906 29.390625 -50.359375 C 28.816406 -48.597656 28.53125 -46.898438 28.53125 -45.265625 L 28.53125 -12.671875 C 28.53125 -8.734375 29.492188 -6.066406 31.421875 -4.671875 C 33.347656 -3.273438 36.238281 -2.578125 40.09375 -2.578125 L 40.09375 0 C 38.207031 -0.0820312 35.457031 -0.179688 31.84375 -0.296875 C 28.238281 -0.421875 24.472656 -0.484375 20.546875 -0.484375 C 17.265625 -0.484375 13.941406 -0.421875 10.578125 -0.296875 C 7.210938 -0.179688 4.671875 -0.0820312 2.953125 0 L 2.953125 -2.578125 C 5.816406 -2.578125 7.84375 -3.191406 9.03125 -4.421875 C 10.226562 -5.648438 10.828125 -7.988281 10.828125 -11.4375 L 10.828125 -50.1875 C 10.828125 -53.875 10.269531 -56.597656 9.15625 -58.359375 C 8.050781 -60.128906 5.984375 -61.015625 2.953125 -61.015625 L 2.953125 -63.59375 C 5.578125 -63.34375 8.117188 -63.21875 10.578125 -63.21875 C 14.023438 -63.21875 17.242188 -63.359375 20.234375 -63.640625 C 23.222656 -63.929688 25.988281 -64.363281 28.53125 -64.9375 L 28.53125 -53.5 C 29.519531 -55.71875 30.832031 -57.726562 32.46875 -59.53125 C 34.113281 -61.332031 36 -62.742188 38.125 -63.765625 C 40.257812 -64.796875 42.640625 -65.3125 45.265625 -65.3125 Z M 45.265625 -65.3125 "/></g></g></g><g fill="#ffffff" fill-opacity="1"><g transform="translate(200.567018, 237.374984)"><g><path d="M 54.609375 -64.203125 L 23.859375 -1.84375 L 30.265625 -1.84375 C 33.460938 -1.84375 36.472656 -2.519531 39.296875 -3.875 C 42.128906 -5.226562 44.507812 -7.503906 46.4375 -10.703125 C 48.363281 -13.898438 49.53125 -18.285156 49.9375 -23.859375 L 52.515625 -23.859375 C 52.515625 -17.878906 52.554688 -12.976562 52.640625 -9.15625 C 52.722656 -5.34375 52.847656 -2.128906 53.015625 0.484375 C 49.328125 0.328125 45.472656 0.207031 41.453125 0.125 C 37.429688 0.0390625 33.410156 0 29.390625 0 C 25.210938 0 20.910156 0.0625 16.484375 0.1875 C 12.054688 0.3125 7.832031 0.453125 3.8125 0.609375 L 34.5625 -61.75 L 27.671875 -61.75 C 24.390625 -61.75 21.375 -61.070312 18.625 -59.71875 C 15.882812 -58.363281 13.628906 -56.066406 11.859375 -52.828125 C 10.097656 -49.585938 8.972656 -45.222656 8.484375 -39.734375 L 5.90625 -39.734375 C 5.90625 -45.796875 5.863281 -50.710938 5.78125 -54.484375 C 5.695312 -58.253906 5.570312 -61.453125 5.40625 -64.078125 C 9.175781 -63.921875 13.070312 -63.800781 17.09375 -63.71875 C 21.113281 -63.632812 25.09375 -63.59375 29.03125 -63.59375 C 33.289062 -63.59375 37.613281 -63.648438 42 -63.765625 C 46.382812 -63.890625 50.585938 -64.035156 54.609375 -64.203125 Z M 54.609375 -64.203125 "/></g></g></g><g fill="#ffffff" fill-opacity="1"><g transform="translate(258.869043, 237.374984)"><g><path d="M 19.921875 0.859375 C 16.234375 0.859375 13.160156 0.160156 10.703125 -1.234375 C 8.242188 -2.628906 6.4375 -4.492188 5.28125 -6.828125 C 4.132812 -9.160156 3.5625 -11.722656 3.5625 -14.515625 C 3.5625 -18.035156 4.359375 -20.898438 5.953125 -23.109375 C 7.554688 -25.328125 9.628906 -27.132812 12.171875 -28.53125 C 14.710938 -29.925781 17.398438 -31.070312 20.234375 -31.96875 C 23.066406 -32.875 25.769531 -33.757812 28.34375 -34.625 C 30.925781 -35.488281 33.015625 -36.515625 34.609375 -37.703125 C 36.210938 -38.890625 37.015625 -40.425781 37.015625 -42.3125 L 37.015625 -51.90625 C 37.015625 -54.039062 36.664062 -55.945312 35.96875 -57.625 C 35.28125 -59.300781 34.21875 -60.59375 32.78125 -61.5 C 31.34375 -62.40625 29.476562 -62.859375 27.1875 -62.859375 C 25.539062 -62.859375 23.894531 -62.628906 22.25 -62.171875 C 20.613281 -61.722656 19.265625 -60.96875 18.203125 -59.90625 C 20.492188 -59.082031 22.273438 -57.828125 23.546875 -56.140625 C 24.828125 -54.460938 25.46875 -52.5625 25.46875 -50.4375 C 25.46875 -47.644531 24.503906 -45.425781 22.578125 -43.78125 C 20.648438 -42.144531 18.375 -41.328125 15.75 -41.328125 C 12.789062 -41.328125 10.550781 -42.25 9.03125 -44.09375 C 7.519531 -45.9375 6.765625 -48.171875 6.765625 -50.796875 C 6.765625 -53.171875 7.359375 -55.140625 8.546875 -56.703125 C 9.734375 -58.265625 11.394531 -59.738281 13.53125 -61.125 C 15.820312 -62.4375 18.585938 -63.460938 21.828125 -64.203125 C 25.066406 -64.941406 28.570312 -65.3125 32.34375 -65.3125 C 36.113281 -65.3125 39.515625 -64.921875 42.546875 -64.140625 C 45.585938 -63.359375 48.132812 -61.945312 50.1875 -59.90625 C 52.070312 -58.019531 53.300781 -55.703125 53.875 -52.953125 C 54.445312 -50.203125 54.734375 -46.738281 54.734375 -42.5625 L 54.734375 -9.109375 C 54.734375 -7.054688 54.9375 -5.640625 55.34375 -4.859375 C 55.757812 -4.078125 56.457031 -3.6875 57.4375 -3.6875 C 58.175781 -3.6875 58.894531 -3.890625 59.59375 -4.296875 C 60.289062 -4.710938 61.050781 -5.207031 61.875 -5.78125 L 63.09375 -3.6875 C 61.375 -2.207031 59.382812 -1.078125 57.125 -0.296875 C 54.875 0.472656 52.351562 0.859375 49.5625 0.859375 C 46.53125 0.859375 44.113281 0.429688 42.3125 -0.421875 C 40.507812 -1.285156 39.21875 -2.457031 38.4375 -3.9375 C 37.65625 -5.414062 37.265625 -7.140625 37.265625 -9.109375 C 35.296875 -5.984375 32.914062 -3.539062 30.125 -1.78125 C 27.34375 -0.0195312 23.941406 0.859375 19.921875 0.859375 Z M 28.65625 -7.015625 C 30.300781 -7.015625 31.796875 -7.398438 33.140625 -8.171875 C 34.492188 -8.953125 35.785156 -10.242188 37.015625 -12.046875 L 37.015625 -37.265625 C 36.285156 -36.035156 35.265625 -34.925781 33.953125 -33.9375 C 32.640625 -32.957031 31.242188 -31.953125 29.765625 -30.921875 C 28.285156 -29.898438 26.867188 -28.773438 25.515625 -27.546875 C 24.171875 -26.316406 23.085938 -24.800781 22.265625 -23 C 21.441406 -21.195312 21.03125 -19.023438 21.03125 -16.484375 C 21.03125 -13.285156 21.726562 -10.90625 23.125 -9.34375 C 24.519531 -7.789062 26.363281 -7.015625 28.65625 -7.015625 Z M 28.65625 -7.015625 "/></g></g></g><g fill="#e1ba66" fill-opacity="1"><g transform="translate(322.592004, 237.374984)"><g><path d="M 16.609375 -17.21875 C 19.804688 -17.21875 22.347656 -16.375 24.234375 -14.6875 C 26.117188 -13.007812 27.0625 -10.695312 27.0625 -7.75 C 27.0625 -4.800781 26.117188 -2.484375 24.234375 -0.796875 C 22.347656 0.878906 19.804688 1.71875 16.609375 1.71875 C 13.410156 1.71875 10.867188 0.878906 8.984375 -0.796875 C 7.097656 -2.484375 6.15625 -4.800781 6.15625 -7.75 C 6.15625 -10.695312 7.097656 -13.007812 8.984375 -14.6875 C 10.867188 -16.375 13.410156 -17.21875 16.609375 -17.21875 Z M 16.609375 -17.21875 "/></g></g></g></svg>