<svg xmlns="http://www.w3.org/2000/svg" xmlns:xlink="http://www.w3.org/1999/xlink" width="155" zoomAndPan="magnify" viewBox="0 0 116.25 30.000001" height="40" preserveAspectRatio="xMidYMid meet" version="1.0"><defs><g/></defs><g fill="#ffffff" fill-opacity="1"><g transform="translate(2.901036, 14.859165)"><g><path d="M 4 -0.828125 C 4.09375 -0.828125 4.164062 -0.800781 4.21875 -0.75 C 4.269531 -0.707031 4.296875 -0.640625 4.296875 -0.546875 L 4.296875 -0.265625 C 4.296875 -0.171875 4.269531 -0.101562 4.21875 -0.0625 C 4.164062 -0.0195312 4.09375 0 4 0 L 3.21875 0 C 3.164062 0 3.117188 -0.0078125 3.078125 -0.03125 C 3.035156 -0.0625 3.003906 -0.0976562 2.984375 -0.140625 L 2.40625 -1.1875 C 2.332031 -1.320312 2.269531 -1.421875 2.21875 -1.484375 C 2.164062 -1.554688 2.109375 -1.601562 2.046875 -1.625 C 1.984375 -1.644531 1.898438 -1.65625 1.796875 -1.65625 L 1.6875 -1.65625 L 1.6875 -0.828125 L 1.78125 -0.828125 C 1.863281 -0.828125 1.929688 -0.800781 1.984375 -0.75 C 2.046875 -0.707031 2.078125 -0.640625 2.078125 -0.546875 L 2.078125 -0.265625 C 2.078125 -0.171875 2.046875 -0.101562 1.984375 -0.0625 C 1.929688 -0.0195312 1.863281 0 1.78125 0 L 0.609375 0 C 0.515625 0 0.441406 -0.0195312 0.390625 -0.0625 C 0.335938 -0.101562 0.3125 -0.171875 0.3125 -0.265625 L 0.3125 -0.546875 C 0.3125 -0.640625 0.335938 -0.707031 0.390625 -0.75 C 0.441406 -0.800781 0.515625 -0.828125 0.609375 -0.828125 L 0.703125 -0.828125 L 0.703125 -3.5 L 0.609375 -3.5 C 0.515625 -3.5 0.441406 -3.519531 0.390625 -3.5625 C 0.335938 -3.613281 0.3125 -3.6875 0.3125 -3.78125 L 0.3125 -4.046875 C 0.3125 -4.140625 0.335938 -4.207031 0.390625 -4.25 C 0.441406 -4.300781 0.515625 -4.328125 0.609375 -4.328125 L 2.171875 -4.328125 C 2.691406 -4.328125 3.085938 -4.21875 3.359375 -4 C 3.628906 -3.78125 3.765625 -3.460938 3.765625 -3.046875 C 3.765625 -2.773438 3.691406 -2.539062 3.546875 -2.34375 C 3.410156 -2.15625 3.210938 -2.015625 2.953125 -1.921875 C 3.023438 -1.890625 3.09375 -1.835938 3.15625 -1.765625 C 3.226562 -1.703125 3.296875 -1.609375 3.359375 -1.484375 L 3.71875 -0.828125 Z M 2.0625 -2.46875 C 2.3125 -2.46875 2.488281 -2.507812 2.59375 -2.59375 C 2.707031 -2.6875 2.765625 -2.832031 2.765625 -3.03125 C 2.765625 -3.1875 2.707031 -3.300781 2.59375 -3.375 C 2.488281 -3.457031 2.332031 -3.5 2.125 -3.5 L 1.6875 -3.5 L 1.6875 -2.46875 Z M 2.0625 -2.46875 "/></g></g></g><g fill="#ffffff" fill-opacity="1"><g transform="translate(7.378083, 14.859165)"><g><path d="M 3.15625 -1.703125 C 3.15625 -1.566406 3.148438 -1.441406 3.140625 -1.328125 L 1.25 -1.328125 C 1.28125 -1.148438 1.347656 -1.003906 1.453125 -0.890625 C 1.566406 -0.785156 1.710938 -0.734375 1.890625 -0.734375 C 2.003906 -0.734375 2.09375 -0.75 2.15625 -0.78125 C 2.226562 -0.8125 2.300781 -0.863281 2.375 -0.9375 C 2.46875 -1.019531 2.5625 -1.0625 2.65625 -1.0625 C 2.757812 -1.0625 2.847656 -1.035156 2.921875 -0.984375 C 2.992188 -0.929688 3.03125 -0.847656 3.03125 -0.734375 C 3.03125 -0.617188 2.992188 -0.515625 2.921875 -0.421875 C 2.816406 -0.273438 2.671875 -0.15625 2.484375 -0.0625 C 2.304688 0.0195312 2.09375 0.0625 1.84375 0.0625 C 1.507812 0.0625 1.222656 -0.00390625 0.984375 -0.140625 C 0.742188 -0.273438 0.554688 -0.460938 0.421875 -0.703125 C 0.296875 -0.953125 0.234375 -1.238281 0.234375 -1.5625 C 0.234375 -1.882812 0.296875 -2.164062 0.421875 -2.40625 C 0.554688 -2.644531 0.738281 -2.828125 0.96875 -2.953125 C 1.207031 -3.078125 1.476562 -3.140625 1.78125 -3.140625 C 2.03125 -3.140625 2.257812 -3.085938 2.46875 -2.984375 C 2.675781 -2.878906 2.84375 -2.71875 2.96875 -2.5 C 3.09375 -2.28125 3.15625 -2.015625 3.15625 -1.703125 Z M 1.75 -2.421875 C 1.476562 -2.421875 1.3125 -2.253906 1.25 -1.921875 L 2.15625 -1.921875 C 2.164062 -1.941406 2.171875 -1.976562 2.171875 -2.03125 C 2.171875 -2.15625 2.128906 -2.25 2.046875 -2.3125 C 1.972656 -2.382812 1.875 -2.421875 1.75 -2.421875 Z M 1.75 -2.421875 "/></g></g></g><g fill="#ffffff" fill-opacity="1"><g transform="translate(10.786814, 14.859165)"><g><path d="M 3.109375 -0.828125 C 3.191406 -0.828125 3.257812 -0.800781 3.3125 -0.75 C 3.375 -0.707031 3.40625 -0.640625 3.40625 -0.546875 L 3.40625 -0.265625 C 3.40625 -0.171875 3.375 -0.101562 3.3125 -0.0625 C 3.257812 -0.0195312 3.191406 0 3.109375 0 L 2.34375 0 C 2.257812 0 2.1875 -0.0234375 2.125 -0.078125 C 2.070312 -0.140625 2.046875 -0.21875 2.046875 -0.3125 L 2.046875 -0.578125 C 1.960938 -0.390625 1.835938 -0.234375 1.671875 -0.109375 C 1.515625 0.00390625 1.347656 0.0625 1.171875 0.0625 C 0.890625 0.0625 0.660156 -0.0195312 0.484375 -0.1875 C 0.316406 -0.351562 0.234375 -0.578125 0.234375 -0.859375 C 0.234375 -1.179688 0.332031 -1.414062 0.53125 -1.5625 C 0.738281 -1.707031 1.054688 -1.78125 1.484375 -1.78125 C 1.648438 -1.78125 1.835938 -1.765625 2.046875 -1.734375 L 2.046875 -1.9375 C 2.046875 -2.082031 2.003906 -2.195312 1.921875 -2.28125 C 1.835938 -2.363281 1.726562 -2.40625 1.59375 -2.40625 C 1.507812 -2.40625 1.4375 -2.390625 1.375 -2.359375 C 1.363281 -2.242188 1.3125 -2.144531 1.21875 -2.0625 C 1.125 -1.988281 1.007812 -1.953125 0.875 -1.953125 C 0.726562 -1.953125 0.609375 -1.992188 0.515625 -2.078125 C 0.421875 -2.171875 0.375 -2.289062 0.375 -2.4375 C 0.375 -2.65625 0.484375 -2.828125 0.703125 -2.953125 C 0.921875 -3.078125 1.210938 -3.140625 1.578125 -3.140625 C 2.054688 -3.140625 2.414062 -3.019531 2.65625 -2.78125 C 2.894531 -2.550781 3.015625 -2.222656 3.015625 -1.796875 L 3.015625 -0.828125 Z M 1.484375 -0.640625 C 1.628906 -0.640625 1.753906 -0.695312 1.859375 -0.8125 C 1.960938 -0.9375 2.019531 -1.085938 2.03125 -1.265625 C 1.882812 -1.273438 1.75 -1.28125 1.625 -1.28125 C 1.476562 -1.28125 1.367188 -1.25 1.296875 -1.1875 C 1.234375 -1.132812 1.203125 -1.046875 1.203125 -0.921875 C 1.203125 -0.835938 1.226562 -0.769531 1.28125 -0.71875 C 1.34375 -0.664062 1.410156 -0.640625 1.484375 -0.640625 Z M 1.484375 -0.640625 "/></g></g></g><g fill="#ffffff" fill-opacity="1"><g transform="translate(14.386972, 14.859165)"><g><path d="M 0.453125 0 C 0.367188 0 0.296875 -0.0195312 0.234375 -0.0625 C 0.179688 -0.101562 0.15625 -0.171875 0.15625 -0.265625 L 0.15625 -0.546875 C 0.15625 -0.640625 0.179688 -0.707031 0.234375 -0.75 C 0.296875 -0.800781 0.367188 -0.828125 0.453125 -0.828125 L 0.546875 -0.828125 L 0.546875 -3.75 L 0.453125 -3.75 C 0.367188 -3.75 0.296875 -3.769531 0.234375 -3.8125 C 0.179688 -3.851562 0.15625 -3.925781 0.15625 -4.03125 L 0.15625 -4.296875 C 0.15625 -4.390625 0.179688 -4.457031 0.234375 -4.5 C 0.296875 -4.539062 0.367188 -4.5625 0.453125 -4.5625 L 1.21875 -4.5625 C 1.300781 -4.5625 1.375 -4.53125 1.4375 -4.46875 C 1.5 -4.414062 1.53125 -4.347656 1.53125 -4.265625 L 1.53125 -0.828125 L 1.609375 -0.828125 C 1.703125 -0.828125 1.773438 -0.800781 1.828125 -0.75 C 1.878906 -0.707031 1.90625 -0.640625 1.90625 -0.546875 L 1.90625 -0.265625 C 1.90625 -0.171875 1.878906 -0.101562 1.828125 -0.0625 C 1.773438 -0.0195312 1.703125 0 1.609375 0 Z M 0.453125 0 "/></g></g></g><g fill="#ffffff" fill-opacity="1"><g transform="translate(16.461849, 14.859165)"><g/></g></g><g fill="#ffffff" fill-opacity="1"><g transform="translate(18.215612, 14.859165)"><g><path d="M 4 -0.828125 C 4.09375 -0.828125 4.164062 -0.800781 4.21875 -0.75 C 4.269531 -0.707031 4.296875 -0.640625 4.296875 -0.546875 L 4.296875 -0.265625 C 4.296875 -0.171875 4.269531 -0.101562 4.21875 -0.0625 C 4.164062 -0.0195312 4.09375 0 4 0 L 3.21875 0 C 3.164062 0 3.117188 -0.0078125 3.078125 -0.03125 C 3.035156 -0.0625 3.003906 -0.0976562 2.984375 -0.140625 L 2.40625 -1.1875 C 2.332031 -1.320312 2.269531 -1.421875 2.21875 -1.484375 C 2.164062 -1.554688 2.109375 -1.601562 2.046875 -1.625 C 1.984375 -1.644531 1.898438 -1.65625 1.796875 -1.65625 L 1.6875 -1.65625 L 1.6875 -0.828125 L 1.78125 -0.828125 C 1.863281 -0.828125 1.929688 -0.800781 1.984375 -0.75 C 2.046875 -0.707031 2.078125 -0.640625 2.078125 -0.546875 L 2.078125 -0.265625 C 2.078125 -0.171875 2.046875 -0.101562 1.984375 -0.0625 C 1.929688 -0.0195312 1.863281 0 1.78125 0 L 0.609375 0 C 0.515625 0 0.441406 -0.0195312 0.390625 -0.0625 C 0.335938 -0.101562 0.3125 -0.171875 0.3125 -0.265625 L 0.3125 -0.546875 C 0.3125 -0.640625 0.335938 -0.707031 0.390625 -0.75 C 0.441406 -0.800781 0.515625 -0.828125 0.609375 -0.828125 L 0.703125 -0.828125 L 0.703125 -3.5 L 0.609375 -3.5 C 0.515625 -3.5 0.441406 -3.519531 0.390625 -3.5625 C 0.335938 -3.613281 0.3125 -3.6875 0.3125 -3.78125 L 0.3125 -4.046875 C 0.3125 -4.140625 0.335938 -4.207031 0.390625 -4.25 C 0.441406 -4.300781 0.515625 -4.328125 0.609375 -4.328125 L 2.171875 -4.328125 C 2.691406 -4.328125 3.085938 -4.21875 3.359375 -4 C 3.628906 -3.78125 3.765625 -3.460938 3.765625 -3.046875 C 3.765625 -2.773438 3.691406 -2.539062 3.546875 -2.34375 C 3.410156 -2.15625 3.210938 -2.015625 2.953125 -1.921875 C 3.023438 -1.890625 3.09375 -1.835938 3.15625 -1.765625 C 3.226562 -1.703125 3.296875 -1.609375 3.359375 -1.484375 L 3.71875 -0.828125 Z M 2.0625 -2.46875 C 2.3125 -2.46875 2.488281 -2.507812 2.59375 -2.59375 C 2.707031 -2.6875 2.765625 -2.832031 2.765625 -3.03125 C 2.765625 -3.1875 2.707031 -3.300781 2.59375 -3.375 C 2.488281 -3.457031 2.332031 -3.5 2.125 -3.5 L 1.6875 -3.5 L 1.6875 -2.46875 Z M 2.0625 -2.46875 "/></g></g></g><g fill="#ffffff" fill-opacity="1"><g transform="translate(22.692659, 14.859165)"><g><path d="M 3.109375 -0.828125 C 3.191406 -0.828125 3.257812 -0.800781 3.3125 -0.75 C 3.375 -0.707031 3.40625 -0.640625 3.40625 -0.546875 L 3.40625 -0.265625 C 3.40625 -0.171875 3.375 -0.101562 3.3125 -0.0625 C 3.257812 -0.0195312 3.191406 0 3.109375 0 L 2.34375 0 C 2.257812 0 2.1875 -0.0234375 2.125 -0.078125 C 2.070312 -0.140625 2.046875 -0.21875 2.046875 -0.3125 L 2.046875 -0.578125 C 1.960938 -0.390625 1.835938 -0.234375 1.671875 -0.109375 C 1.515625 0.00390625 1.347656 0.0625 1.171875 0.0625 C 0.890625 0.0625 0.660156 -0.0195312 0.484375 -0.1875 C 0.316406 -0.351562 0.234375 -0.578125 0.234375 -0.859375 C 0.234375 -1.179688 0.332031 -1.414062 0.53125 -1.5625 C 0.738281 -1.707031 1.054688 -1.78125 1.484375 -1.78125 C 1.648438 -1.78125 1.835938 -1.765625 2.046875 -1.734375 L 2.046875 -1.9375 C 2.046875 -2.082031 2.003906 -2.195312 1.921875 -2.28125 C 1.835938 -2.363281 1.726562 -2.40625 1.59375 -2.40625 C 1.507812 -2.40625 1.4375 -2.390625 1.375 -2.359375 C 1.363281 -2.242188 1.3125 -2.144531 1.21875 -2.0625 C 1.125 -1.988281 1.007812 -1.953125 0.875 -1.953125 C 0.726562 -1.953125 0.609375 -1.992188 0.515625 -2.078125 C 0.421875 -2.171875 0.375 -2.289062 0.375 -2.4375 C 0.375 -2.65625 0.484375 -2.828125 0.703125 -2.953125 C 0.921875 -3.078125 1.210938 -3.140625 1.578125 -3.140625 C 2.054688 -3.140625 2.414062 -3.019531 2.65625 -2.78125 C 2.894531 -2.550781 3.015625 -2.222656 3.015625 -1.796875 L 3.015625 -0.828125 Z M 1.484375 -0.640625 C 1.628906 -0.640625 1.753906 -0.695312 1.859375 -0.8125 C 1.960938 -0.9375 2.019531 -1.085938 2.03125 -1.265625 C 1.882812 -1.273438 1.75 -1.28125 1.625 -1.28125 C 1.476562 -1.28125 1.367188 -1.25 1.296875 -1.1875 C 1.234375 -1.132812 1.203125 -1.046875 1.203125 -0.921875 C 1.203125 -0.835938 1.226562 -0.769531 1.28125 -0.71875 C 1.34375 -0.664062 1.410156 -0.640625 1.484375 -0.640625 Z M 1.484375 -0.640625 "/></g></g></g><g fill="#ffffff" fill-opacity="1"><g transform="translate(26.23724, 14.859165)"><g><path d="M 3.46875 -0.828125 C 3.550781 -0.828125 3.617188 -0.800781 3.671875 -0.75 C 3.734375 -0.707031 3.765625 -0.640625 3.765625 -0.546875 L 3.765625 -0.265625 C 3.765625 -0.171875 3.734375 -0.101562 3.671875 -0.0625 C 3.617188 -0.0195312 3.550781 0 3.46875 0 L 2.703125 0 C 2.609375 0 2.53125 -0.0234375 2.46875 -0.078125 C 2.414062 -0.140625 2.390625 -0.21875 2.390625 -0.3125 L 2.390625 -0.5625 C 2.316406 -0.375 2.191406 -0.222656 2.015625 -0.109375 C 1.847656 0.00390625 1.660156 0.0625 1.453125 0.0625 C 1.085938 0.0625 0.796875 -0.0703125 0.578125 -0.34375 C 0.367188 -0.625 0.265625 -1 0.265625 -1.46875 C 0.265625 -2 0.382812 -2.410156 0.625 -2.703125 C 0.863281 -2.992188 1.207031 -3.140625 1.65625 -3.140625 C 1.957031 -3.140625 2.203125 -3.035156 2.390625 -2.828125 L 2.390625 -3.75 L 2.296875 -3.75 C 2.210938 -3.75 2.140625 -3.769531 2.078125 -3.8125 C 2.023438 -3.851562 2 -3.925781 2 -4.03125 L 2 -4.296875 C 2 -4.390625 2.023438 -4.457031 2.078125 -4.5 C 2.140625 -4.539062 2.210938 -4.5625 2.296875 -4.5625 L 3.0625 -4.5625 C 3.15625 -4.5625 3.226562 -4.53125 3.28125 -4.46875 C 3.34375 -4.414062 3.375 -4.347656 3.375 -4.265625 L 3.375 -0.828125 Z M 1.78125 -0.734375 C 1.945312 -0.734375 2.085938 -0.8125 2.203125 -0.96875 C 2.328125 -1.132812 2.390625 -1.335938 2.390625 -1.578125 L 2.390625 -2.109375 C 2.328125 -2.179688 2.242188 -2.238281 2.140625 -2.28125 C 2.035156 -2.320312 1.925781 -2.34375 1.8125 -2.34375 C 1.632812 -2.34375 1.492188 -2.269531 1.390625 -2.125 C 1.296875 -1.976562 1.25 -1.769531 1.25 -1.5 C 1.25 -1.257812 1.296875 -1.070312 1.390625 -0.9375 C 1.484375 -0.800781 1.613281 -0.734375 1.78125 -0.734375 Z M 1.78125 -0.734375 "/></g></g></g><g fill="#ffffff" fill-opacity="1"><g transform="translate(30.158512, 14.859165)"><g><path d="M 1.03125 -3.53125 C 0.851562 -3.53125 0.703125 -3.585938 0.578125 -3.703125 C 0.460938 -3.816406 0.40625 -3.960938 0.40625 -4.140625 C 0.40625 -4.316406 0.460938 -4.460938 0.578125 -4.578125 C 0.703125 -4.691406 0.851562 -4.75 1.03125 -4.75 C 1.195312 -4.75 1.335938 -4.691406 1.453125 -4.578125 C 1.578125 -4.460938 1.640625 -4.316406 1.640625 -4.140625 C 1.640625 -3.960938 1.578125 -3.816406 1.453125 -3.703125 C 1.335938 -3.585938 1.195312 -3.53125 1.03125 -3.53125 Z M 0.5625 0 C 0.46875 0 0.394531 -0.0195312 0.34375 -0.0625 C 0.289062 -0.101562 0.265625 -0.171875 0.265625 -0.265625 L 0.265625 -0.546875 C 0.265625 -0.640625 0.289062 -0.707031 0.34375 -0.75 C 0.394531 -0.800781 0.46875 -0.828125 0.5625 -0.828125 L 0.640625 -0.828125 L 0.640625 -2.265625 L 0.5625 -2.265625 C 0.46875 -2.265625 0.394531 -2.285156 0.34375 -2.328125 C 0.289062 -2.378906 0.265625 -2.453125 0.265625 -2.546875 L 0.265625 -2.8125 C 0.265625 -2.90625 0.289062 -2.972656 0.34375 -3.015625 C 0.394531 -3.066406 0.46875 -3.09375 0.5625 -3.09375 L 1.328125 -3.09375 C 1.410156 -3.09375 1.476562 -3.0625 1.53125 -3 C 1.59375 -2.9375 1.625 -2.863281 1.625 -2.78125 L 1.625 -0.828125 L 1.71875 -0.828125 C 1.8125 -0.828125 1.882812 -0.800781 1.9375 -0.75 C 1.988281 -0.707031 2.015625 -0.640625 2.015625 -0.546875 L 2.015625 -0.265625 C 2.015625 -0.171875 1.988281 -0.101562 1.9375 -0.0625 C 1.882812 -0.0195312 1.8125 0 1.71875 0 Z M 0.5625 0 "/></g></g></g><g fill="#ffffff" fill-opacity="1"><g transform="translate(32.326021, 14.859165)"><g><path d="M 1.78125 -1.953125 C 2.050781 -1.878906 2.265625 -1.796875 2.421875 -1.703125 C 2.578125 -1.617188 2.691406 -1.515625 2.765625 -1.390625 C 2.835938 -1.265625 2.875 -1.113281 2.875 -0.9375 C 2.875 -0.75 2.816406 -0.578125 2.703125 -0.421875 C 2.585938 -0.265625 2.425781 -0.144531 2.21875 -0.0625 C 2.019531 0.0195312 1.796875 0.0625 1.546875 0.0625 C 1.140625 0.0625 0.820312 0 0.59375 -0.125 C 0.363281 -0.25 0.25 -0.414062 0.25 -0.625 C 0.25 -0.757812 0.296875 -0.867188 0.390625 -0.953125 C 0.484375 -1.046875 0.609375 -1.09375 0.765625 -1.09375 C 0.898438 -1.09375 1.015625 -1.039062 1.109375 -0.9375 C 1.210938 -0.84375 1.265625 -0.726562 1.265625 -0.59375 C 1.328125 -0.5625 1.410156 -0.546875 1.515625 -0.546875 C 1.640625 -0.546875 1.734375 -0.566406 1.796875 -0.609375 C 1.859375 -0.648438 1.890625 -0.707031 1.890625 -0.78125 C 1.890625 -0.863281 1.863281 -0.925781 1.8125 -0.96875 C 1.757812 -1.007812 1.65625 -1.050781 1.5 -1.09375 C 1.207031 -1.1875 0.972656 -1.28125 0.796875 -1.375 C 0.617188 -1.46875 0.488281 -1.578125 0.40625 -1.703125 C 0.332031 -1.828125 0.296875 -1.984375 0.296875 -2.171875 C 0.296875 -2.359375 0.347656 -2.523438 0.453125 -2.671875 C 0.566406 -2.828125 0.722656 -2.941406 0.921875 -3.015625 C 1.128906 -3.097656 1.363281 -3.140625 1.625 -3.140625 C 1.988281 -3.140625 2.28125 -3.082031 2.5 -2.96875 C 2.71875 -2.851562 2.828125 -2.695312 2.828125 -2.5 C 2.828125 -2.351562 2.78125 -2.234375 2.6875 -2.140625 C 2.59375 -2.054688 2.472656 -2.015625 2.328125 -2.015625 C 2.179688 -2.015625 2.0625 -2.0625 1.96875 -2.15625 C 1.875 -2.25 1.820312 -2.363281 1.8125 -2.5 C 1.757812 -2.53125 1.691406 -2.546875 1.609375 -2.546875 C 1.503906 -2.546875 1.421875 -2.519531 1.359375 -2.46875 C 1.304688 -2.425781 1.28125 -2.367188 1.28125 -2.296875 C 1.28125 -2.210938 1.3125 -2.148438 1.375 -2.109375 C 1.445312 -2.066406 1.582031 -2.015625 1.78125 -1.953125 Z M 1.78125 -1.953125 "/></g></g></g><g fill="#ffffff" fill-opacity="1"><g transform="translate(35.456864, 14.859165)"><g><path d="M 1.78125 -1.953125 C 2.050781 -1.878906 2.265625 -1.796875 2.421875 -1.703125 C 2.578125 -1.617188 2.691406 -1.515625 2.765625 -1.390625 C 2.835938 -1.265625 2.875 -1.113281 2.875 -0.9375 C 2.875 -0.75 2.816406 -0.578125 2.703125 -0.421875 C 2.585938 -0.265625 2.425781 -0.144531 2.21875 -0.0625 C 2.019531 0.0195312 1.796875 0.0625 1.546875 0.0625 C 1.140625 0.0625 0.820312 0 0.59375 -0.125 C 0.363281 -0.25 0.25 -0.414062 0.25 -0.625 C 0.25 -0.757812 0.296875 -0.867188 0.390625 -0.953125 C 0.484375 -1.046875 0.609375 -1.09375 0.765625 -1.09375 C 0.898438 -1.09375 1.015625 -1.039062 1.109375 -0.9375 C 1.210938 -0.84375 1.265625 -0.726562 1.265625 -0.59375 C 1.328125 -0.5625 1.410156 -0.546875 1.515625 -0.546875 C 1.640625 -0.546875 1.734375 -0.566406 1.796875 -0.609375 C 1.859375 -0.648438 1.890625 -0.707031 1.890625 -0.78125 C 1.890625 -0.863281 1.863281 -0.925781 1.8125 -0.96875 C 1.757812 -1.007812 1.65625 -1.050781 1.5 -1.09375 C 1.207031 -1.1875 0.972656 -1.28125 0.796875 -1.375 C 0.617188 -1.46875 0.488281 -1.578125 0.40625 -1.703125 C 0.332031 -1.828125 0.296875 -1.984375 0.296875 -2.171875 C 0.296875 -2.359375 0.347656 -2.523438 0.453125 -2.671875 C 0.566406 -2.828125 0.722656 -2.941406 0.921875 -3.015625 C 1.128906 -3.097656 1.363281 -3.140625 1.625 -3.140625 C 1.988281 -3.140625 2.28125 -3.082031 2.5 -2.96875 C 2.71875 -2.851562 2.828125 -2.695312 2.828125 -2.5 C 2.828125 -2.351562 2.78125 -2.234375 2.6875 -2.140625 C 2.59375 -2.054688 2.472656 -2.015625 2.328125 -2.015625 C 2.179688 -2.015625 2.0625 -2.0625 1.96875 -2.15625 C 1.875 -2.25 1.820312 -2.363281 1.8125 -2.5 C 1.757812 -2.53125 1.691406 -2.546875 1.609375 -2.546875 C 1.503906 -2.546875 1.421875 -2.519531 1.359375 -2.46875 C 1.304688 -2.425781 1.28125 -2.367188 1.28125 -2.296875 C 1.28125 -2.210938 1.3125 -2.148438 1.375 -2.109375 C 1.445312 -2.066406 1.582031 -2.015625 1.78125 -1.953125 Z M 1.78125 -1.953125 "/></g></g></g><g fill="#ffffff" fill-opacity="1"><g transform="translate(38.587706, 14.859165)"><g><path d="M 1.78125 0.0625 C 1.289062 0.0625 0.910156 -0.0703125 0.640625 -0.34375 C 0.367188 -0.625 0.234375 -1.007812 0.234375 -1.5 C 0.234375 -2.019531 0.375 -2.421875 0.65625 -2.703125 C 0.945312 -2.992188 1.34375 -3.140625 1.84375 -3.140625 C 2.332031 -3.140625 2.707031 -3.003906 2.96875 -2.734375 C 3.238281 -2.460938 3.375 -2.082031 3.375 -1.59375 C 3.375 -1.070312 3.234375 -0.664062 2.953125 -0.375 C 2.671875 -0.0820312 2.28125 0.0625 1.78125 0.0625 Z M 1.796875 -0.734375 C 1.992188 -0.734375 2.140625 -0.800781 2.234375 -0.9375 C 2.335938 -1.070312 2.390625 -1.285156 2.390625 -1.578125 C 2.390625 -1.835938 2.34375 -2.03125 2.25 -2.15625 C 2.15625 -2.28125 2.015625 -2.34375 1.828125 -2.34375 C 1.640625 -2.34375 1.492188 -2.269531 1.390625 -2.125 C 1.285156 -1.988281 1.234375 -1.785156 1.234375 -1.515625 C 1.234375 -1.265625 1.28125 -1.070312 1.375 -0.9375 C 1.46875 -0.800781 1.609375 -0.734375 1.796875 -0.734375 Z M 1.796875 -0.734375 "/></g></g></g><g fill="#ffffff" fill-opacity="1"><g transform="translate(42.212567, 14.859165)"><g><path d="M 3.671875 -0.828125 C 3.753906 -0.828125 3.820312 -0.800781 3.875 -0.75 C 3.9375 -0.707031 3.96875 -0.640625 3.96875 -0.546875 L 3.96875 -0.265625 C 3.96875 -0.171875 3.9375 -0.101562 3.875 -0.0625 C 3.820312 -0.0195312 3.753906 0 3.671875 0 L 2.5625 0 C 2.46875 0 2.394531 -0.0195312 2.34375 -0.0625 C 2.289062 -0.101562 2.265625 -0.171875 2.265625 -0.265625 L 2.265625 -0.546875 C 2.265625 -0.640625 2.289062 -0.707031 2.34375 -0.75 C 2.394531 -0.800781 2.46875 -0.828125 2.5625 -0.828125 L 2.609375 -0.828125 L 2.609375 -1.625 C 2.609375 -1.894531 2.578125 -2.082031 2.515625 -2.1875 C 2.460938 -2.289062 2.363281 -2.34375 2.21875 -2.34375 C 2.0625 -2.34375 1.921875 -2.269531 1.796875 -2.125 C 1.679688 -1.988281 1.625 -1.828125 1.625 -1.640625 L 1.625 -0.828125 L 1.671875 -0.828125 C 1.753906 -0.828125 1.820312 -0.800781 1.875 -0.75 C 1.925781 -0.707031 1.953125 -0.640625 1.953125 -0.546875 L 1.953125 -0.265625 C 1.953125 -0.171875 1.925781 -0.101562 1.875 -0.0625 C 1.820312 -0.0195312 1.753906 0 1.671875 0 L 0.5625 0 C 0.46875 0 0.394531 -0.0195312 0.34375 -0.0625 C 0.289062 -0.101562 0.265625 -0.171875 0.265625 -0.265625 L 0.265625 -0.546875 C 0.265625 -0.640625 0.289062 -0.707031 0.34375 -0.75 C 0.394531 -0.800781 0.46875 -0.828125 0.5625 -0.828125 L 0.640625 -0.828125 L 0.640625 -2.265625 L 0.5625 -2.265625 C 0.46875 -2.265625 0.394531 -2.285156 0.34375 -2.328125 C 0.289062 -2.378906 0.265625 -2.453125 0.265625 -2.546875 L 0.265625 -2.8125 C 0.265625 -2.90625 0.289062 -2.972656 0.34375 -3.015625 C 0.394531 -3.066406 0.46875 -3.09375 0.5625 -3.09375 L 1.328125 -3.09375 C 1.410156 -3.09375 1.476562 -3.0625 1.53125 -3 C 1.59375 -2.9375 1.625 -2.863281 1.625 -2.78125 L 1.625 -2.5 C 1.695312 -2.6875 1.816406 -2.835938 1.984375 -2.953125 C 2.148438 -3.078125 2.328125 -3.140625 2.515625 -3.140625 C 2.847656 -3.140625 3.109375 -3.03125 3.296875 -2.8125 C 3.484375 -2.601562 3.578125 -2.304688 3.578125 -1.921875 L 3.578125 -0.828125 Z M 3.671875 -0.828125 "/></g></g></g><g fill="#ffffff" fill-opacity="1"><g transform="translate(46.319095, 14.859165)"><g/></g></g><g fill="#ffffff" fill-opacity="1"><g transform="translate(48.072858, 14.859165)"><g><path d="M 3.3125 -1.46875 C 3.4375 -1.46875 3.539062 -1.429688 3.625 -1.359375 C 3.707031 -1.296875 3.75 -1.207031 3.75 -1.09375 C 3.75 -1.039062 3.734375 -0.972656 3.703125 -0.890625 C 3.679688 -0.804688 3.648438 -0.734375 3.609375 -0.671875 C 3.460938 -0.421875 3.273438 -0.234375 3.046875 -0.109375 C 2.816406 0.00390625 2.535156 0.0625 2.203125 0.0625 C 1.828125 0.0625 1.492188 -0.03125 1.203125 -0.21875 C 0.921875 -0.40625 0.703125 -0.664062 0.546875 -1 C 0.398438 -1.34375 0.328125 -1.742188 0.328125 -2.203125 C 0.328125 -2.648438 0.398438 -3.035156 0.546875 -3.359375 C 0.703125 -3.691406 0.921875 -3.941406 1.203125 -4.109375 C 1.484375 -4.285156 1.820312 -4.375 2.21875 -4.375 C 2.5 -4.375 2.753906 -4.328125 2.984375 -4.234375 C 3.222656 -4.148438 3.410156 -4.023438 3.546875 -3.859375 C 3.679688 -3.691406 3.75 -3.507812 3.75 -3.3125 C 3.75 -3.132812 3.691406 -2.988281 3.578125 -2.875 C 3.472656 -2.757812 3.335938 -2.703125 3.171875 -2.703125 C 2.992188 -2.703125 2.847656 -2.75 2.734375 -2.84375 C 2.628906 -2.9375 2.578125 -3.066406 2.578125 -3.234375 C 2.578125 -3.316406 2.59375 -3.394531 2.625 -3.46875 C 2.539062 -3.53125 2.410156 -3.5625 2.234375 -3.5625 C 1.921875 -3.5625 1.691406 -3.453125 1.546875 -3.234375 C 1.410156 -3.015625 1.34375 -2.675781 1.34375 -2.21875 C 1.34375 -1.726562 1.414062 -1.363281 1.5625 -1.125 C 1.71875 -0.882812 1.957031 -0.765625 2.28125 -0.765625 C 2.425781 -0.765625 2.550781 -0.796875 2.65625 -0.859375 C 2.757812 -0.929688 2.847656 -1.035156 2.921875 -1.171875 C 2.972656 -1.285156 3.023438 -1.363281 3.078125 -1.40625 C 3.140625 -1.445312 3.21875 -1.46875 3.3125 -1.46875 Z M 3.3125 -1.46875 "/></g></g></g><g fill="#ffffff" fill-opacity="1"><g transform="translate(52.123809, 14.859165)"><g><path d="M 1.78125 0.0625 C 1.289062 0.0625 0.910156 -0.0703125 0.640625 -0.34375 C 0.367188 -0.625 0.234375 -1.007812 0.234375 -1.5 C 0.234375 -2.019531 0.375 -2.421875 0.65625 -2.703125 C 0.945312 -2.992188 1.34375 -3.140625 1.84375 -3.140625 C 2.332031 -3.140625 2.707031 -3.003906 2.96875 -2.734375 C 3.238281 -2.460938 3.375 -2.082031 3.375 -1.59375 C 3.375 -1.070312 3.234375 -0.664062 2.953125 -0.375 C 2.671875 -0.0820312 2.28125 0.0625 1.78125 0.0625 Z M 1.796875 -0.734375 C 1.992188 -0.734375 2.140625 -0.800781 2.234375 -0.9375 C 2.335938 -1.070312 2.390625 -1.285156 2.390625 -1.578125 C 2.390625 -1.835938 2.34375 -2.03125 2.25 -2.15625 C 2.15625 -2.28125 2.015625 -2.34375 1.828125 -2.34375 C 1.640625 -2.34375 1.492188 -2.269531 1.390625 -2.125 C 1.285156 -1.988281 1.234375 -1.785156 1.234375 -1.515625 C 1.234375 -1.265625 1.28125 -1.070312 1.375 -0.9375 C 1.46875 -0.800781 1.609375 -0.734375 1.796875 -0.734375 Z M 1.796875 -0.734375 "/></g></g></g><g fill="#ffffff" fill-opacity="1"><g transform="translate(55.74867, 14.859165)"><g><path d="M 5.5625 -0.828125 C 5.644531 -0.828125 5.710938 -0.800781 5.765625 -0.75 C 5.816406 -0.707031 5.84375 -0.640625 5.84375 -0.546875 L 5.84375 -0.265625 C 5.84375 -0.171875 5.816406 -0.101562 5.765625 -0.0625 C 5.710938 -0.0195312 5.644531 0 5.5625 0 L 4.453125 0 C 4.367188 0 4.296875 -0.0195312 4.234375 -0.0625 C 4.179688 -0.101562 4.15625 -0.171875 4.15625 -0.265625 L 4.15625 -0.546875 C 4.15625 -0.640625 4.179688 -0.707031 4.234375 -0.75 C 4.296875 -0.800781 4.367188 -0.828125 4.453125 -0.828125 L 4.5 -0.828125 L 4.5 -1.625 C 4.5 -1.894531 4.472656 -2.082031 4.421875 -2.1875 C 4.367188 -2.289062 4.269531 -2.34375 4.125 -2.34375 C 3.96875 -2.34375 3.832031 -2.269531 3.71875 -2.125 C 3.601562 -1.988281 3.546875 -1.828125 3.546875 -1.640625 L 3.546875 -0.828125 L 3.578125 -0.828125 C 3.671875 -0.828125 3.742188 -0.800781 3.796875 -0.75 C 3.847656 -0.707031 3.875 -0.640625 3.875 -0.546875 L 3.875 -0.265625 C 3.875 -0.171875 3.847656 -0.101562 3.796875 -0.0625 C 3.742188 -0.0195312 3.671875 0 3.578125 0 L 2.53125 0 C 2.4375 0 2.363281 -0.0195312 2.3125 -0.0625 C 2.257812 -0.101562 2.234375 -0.171875 2.234375 -0.265625 L 2.234375 -0.546875 C 2.234375 -0.640625 2.257812 -0.707031 2.3125 -0.75 C 2.363281 -0.800781 2.4375 -0.828125 2.53125 -0.828125 L 2.5625 -0.828125 L 2.5625 -1.625 C 2.5625 -1.894531 2.535156 -2.082031 2.484375 -2.1875 C 2.429688 -2.289062 2.335938 -2.34375 2.203125 -2.34375 C 2.046875 -2.34375 1.910156 -2.269531 1.796875 -2.125 C 1.679688 -1.988281 1.625 -1.828125 1.625 -1.640625 L 1.625 -0.828125 L 1.671875 -0.828125 C 1.753906 -0.828125 1.820312 -0.800781 1.875 -0.75 C 1.925781 -0.707031 1.953125 -0.640625 1.953125 -0.546875 L 1.953125 -0.265625 C 1.953125 -0.171875 1.925781 -0.101562 1.875 -0.0625 C 1.820312 -0.0195312 1.753906 0 1.671875 0 L 0.5625 0 C 0.46875 0 0.394531 -0.0195312 0.34375 -0.0625 C 0.289062 -0.101562 0.265625 -0.171875 0.265625 -0.265625 L 0.265625 -0.546875 C 0.265625 -0.640625 0.289062 -0.707031 0.34375 -0.75 C 0.394531 -0.800781 0.46875 -0.828125 0.5625 -0.828125 L 0.640625 -0.828125 L 0.640625 -2.265625 L 0.5625 -2.265625 C 0.46875 -2.265625 0.394531 -2.285156 0.34375 -2.328125 C 0.289062 -2.378906 0.265625 -2.453125 0.265625 -2.546875 L 0.265625 -2.8125 C 0.265625 -2.90625 0.289062 -2.972656 0.34375 -3.015625 C 0.394531 -3.066406 0.46875 -3.09375 0.5625 -3.09375 L 1.328125 -3.09375 C 1.410156 -3.09375 1.476562 -3.0625 1.53125 -3 C 1.59375 -2.9375 1.625 -2.863281 1.625 -2.78125 L 1.625 -2.5 C 1.707031 -2.695312 1.828125 -2.851562 1.984375 -2.96875 C 2.148438 -3.082031 2.320312 -3.140625 2.5 -3.140625 C 2.738281 -3.140625 2.941406 -3.078125 3.109375 -2.953125 C 3.285156 -2.835938 3.40625 -2.671875 3.46875 -2.453125 C 3.582031 -2.679688 3.722656 -2.851562 3.890625 -2.96875 C 4.054688 -3.082031 4.226562 -3.140625 4.40625 -3.140625 C 4.75 -3.140625 5.007812 -3.03125 5.1875 -2.8125 C 5.375 -2.601562 5.46875 -2.304688 5.46875 -1.921875 L 5.46875 -0.828125 Z M 5.5625 -0.828125 "/></g></g></g><g fill="#ffffff" fill-opacity="1"><g transform="translate(61.744819, 14.859165)"><g><path d="M 2.46875 -3.140625 C 2.832031 -3.140625 3.117188 -3.003906 3.328125 -2.734375 C 3.546875 -2.460938 3.65625 -2.085938 3.65625 -1.609375 C 3.65625 -1.078125 3.53125 -0.664062 3.28125 -0.375 C 3.039062 -0.0820312 2.703125 0.0625 2.265625 0.0625 C 1.972656 0.0625 1.726562 -0.0390625 1.53125 -0.25 L 1.53125 0.59375 L 1.609375 0.59375 C 1.703125 0.59375 1.773438 0.613281 1.828125 0.65625 C 1.878906 0.707031 1.90625 0.78125 1.90625 0.875 L 1.90625 1.140625 C 1.90625 1.242188 1.878906 1.316406 1.828125 1.359375 C 1.773438 1.398438 1.703125 1.421875 1.609375 1.421875 L 0.453125 1.421875 C 0.367188 1.421875 0.296875 1.398438 0.234375 1.359375 C 0.179688 1.316406 0.15625 1.242188 0.15625 1.140625 L 0.15625 0.875 C 0.15625 0.78125 0.179688 0.707031 0.234375 0.65625 C 0.296875 0.613281 0.367188 0.59375 0.453125 0.59375 L 0.546875 0.59375 L 0.546875 -2.265625 L 0.453125 -2.265625 C 0.367188 -2.265625 0.296875 -2.285156 0.234375 -2.328125 C 0.179688 -2.378906 0.15625 -2.453125 0.15625 -2.546875 L 0.15625 -2.8125 C 0.15625 -2.90625 0.179688 -2.972656 0.234375 -3.015625 C 0.296875 -3.066406 0.367188 -3.09375 0.453125 -3.09375 L 1.21875 -3.09375 C 1.300781 -3.09375 1.375 -3.0625 1.4375 -3 C 1.5 -2.9375 1.53125 -2.863281 1.53125 -2.78125 L 1.53125 -2.53125 C 1.601562 -2.71875 1.722656 -2.863281 1.890625 -2.96875 C 2.054688 -3.082031 2.25 -3.140625 2.46875 -3.140625 Z M 2.109375 -0.734375 C 2.285156 -0.734375 2.421875 -0.804688 2.515625 -0.953125 C 2.617188 -1.109375 2.671875 -1.320312 2.671875 -1.59375 C 2.671875 -1.832031 2.625 -2.015625 2.53125 -2.140625 C 2.4375 -2.273438 2.304688 -2.34375 2.140625 -2.34375 C 1.960938 -2.34375 1.816406 -2.257812 1.703125 -2.09375 C 1.585938 -1.9375 1.53125 -1.742188 1.53125 -1.515625 L 1.53125 -0.96875 C 1.59375 -0.894531 1.675781 -0.835938 1.78125 -0.796875 C 1.882812 -0.753906 1.992188 -0.734375 2.109375 -0.734375 Z M 2.109375 -0.734375 "/></g></g></g><g fill="#ffffff" fill-opacity="1"><g transform="translate(65.666091, 14.859165)"><g><path d="M 3.515625 -0.828125 C 3.597656 -0.828125 3.664062 -0.800781 3.71875 -0.75 C 3.78125 -0.707031 3.8125 -0.640625 3.8125 -0.546875 L 3.8125 -0.265625 C 3.8125 -0.171875 3.78125 -0.101562 3.71875 -0.0625 C 3.664062 -0.0195312 3.597656 0 3.515625 0 L 2.75 0 C 2.65625 0 2.578125 -0.0234375 2.515625 -0.078125 C 2.460938 -0.140625 2.4375 -0.21875 2.4375 -0.3125 L 2.4375 -0.59375 C 2.363281 -0.394531 2.242188 -0.234375 2.078125 -0.109375 C 1.921875 0.00390625 1.753906 0.0625 1.578125 0.0625 C 1.242188 0.0625 0.984375 -0.0390625 0.796875 -0.25 C 0.617188 -0.46875 0.53125 -0.769531 0.53125 -1.15625 L 0.53125 -2.265625 L 0.4375 -2.265625 C 0.34375 -2.265625 0.269531 -2.285156 0.21875 -2.328125 C 0.164062 -2.378906 0.140625 -2.453125 0.140625 -2.546875 L 0.140625 -2.8125 C 0.140625 -2.90625 0.164062 -2.972656 0.21875 -3.015625 C 0.269531 -3.066406 0.34375 -3.09375 0.4375 -3.09375 L 1.203125 -3.09375 C 1.285156 -3.09375 1.351562 -3.0625 1.40625 -3 C 1.46875 -2.9375 1.5 -2.863281 1.5 -2.78125 L 1.5 -1.453125 C 1.5 -1.179688 1.523438 -0.992188 1.578125 -0.890625 C 1.628906 -0.785156 1.722656 -0.734375 1.859375 -0.734375 C 2.023438 -0.734375 2.160156 -0.800781 2.265625 -0.9375 C 2.378906 -1.082031 2.4375 -1.253906 2.4375 -1.453125 L 2.4375 -2.265625 L 2.34375 -2.265625 C 2.257812 -2.265625 2.191406 -2.285156 2.140625 -2.328125 C 2.085938 -2.378906 2.0625 -2.453125 2.0625 -2.546875 L 2.0625 -2.8125 C 2.0625 -2.90625 2.085938 -2.972656 2.140625 -3.015625 C 2.191406 -3.066406 2.257812 -3.09375 2.34375 -3.09375 L 3.109375 -3.09375 C 3.203125 -3.09375 3.273438 -3.0625 3.328125 -3 C 3.390625 -2.9375 3.421875 -2.863281 3.421875 -2.78125 L 3.421875 -0.828125 Z M 3.515625 -0.828125 "/></g></g></g><g fill="#ffffff" fill-opacity="1"><g transform="translate(69.630589, 14.859165)"><g><path d="M 2.46875 -1.09375 C 2.582031 -1.09375 2.675781 -1.054688 2.75 -0.984375 C 2.832031 -0.921875 2.875 -0.84375 2.875 -0.75 C 2.875 -0.632812 2.835938 -0.53125 2.765625 -0.4375 C 2.523438 -0.101562 2.21875 0.0625 1.84375 0.0625 C 1.03125 0.0625 0.625 -0.382812 0.625 -1.28125 L 0.625 -2.28125 L 0.40625 -2.28125 C 0.320312 -2.28125 0.25 -2.304688 0.1875 -2.359375 C 0.132812 -2.421875 0.109375 -2.5 0.109375 -2.59375 L 0.109375 -2.78125 C 0.109375 -2.863281 0.132812 -2.9375 0.1875 -3 C 0.25 -3.0625 0.320312 -3.09375 0.40625 -3.09375 L 0.625 -3.09375 L 0.625 -3.625 C 0.625 -3.71875 0.648438 -3.789062 0.703125 -3.84375 C 0.765625 -3.90625 0.84375 -3.9375 0.9375 -3.9375 L 1.296875 -3.9375 C 1.378906 -3.9375 1.445312 -3.90625 1.5 -3.84375 C 1.5625 -3.789062 1.59375 -3.71875 1.59375 -3.625 L 1.59375 -3.09375 L 2.21875 -3.09375 C 2.3125 -3.09375 2.382812 -3.0625 2.4375 -3 C 2.5 -2.9375 2.53125 -2.863281 2.53125 -2.78125 L 2.53125 -2.59375 C 2.53125 -2.5 2.5 -2.421875 2.4375 -2.359375 C 2.382812 -2.304688 2.3125 -2.28125 2.21875 -2.28125 L 1.59375 -2.28125 L 1.59375 -1.125 C 1.59375 -1.007812 1.617188 -0.914062 1.671875 -0.84375 C 1.722656 -0.769531 1.796875 -0.734375 1.890625 -0.734375 C 1.960938 -0.734375 2.019531 -0.75 2.0625 -0.78125 C 2.101562 -0.8125 2.148438 -0.863281 2.203125 -0.9375 C 2.242188 -1 2.28125 -1.039062 2.3125 -1.0625 C 2.351562 -1.082031 2.40625 -1.09375 2.46875 -1.09375 Z M 2.46875 -1.09375 "/></g></g></g><g fill="#ffffff" fill-opacity="1"><g transform="translate(72.625574, 14.859165)"><g><path d="M 3.15625 -1.703125 C 3.15625 -1.566406 3.148438 -1.441406 3.140625 -1.328125 L 1.25 -1.328125 C 1.28125 -1.148438 1.347656 -1.003906 1.453125 -0.890625 C 1.566406 -0.785156 1.710938 -0.734375 1.890625 -0.734375 C 2.003906 -0.734375 2.09375 -0.75 2.15625 -0.78125 C 2.226562 -0.8125 2.300781 -0.863281 2.375 -0.9375 C 2.46875 -1.019531 2.5625 -1.0625 2.65625 -1.0625 C 2.757812 -1.0625 2.847656 -1.035156 2.921875 -0.984375 C 2.992188 -0.929688 3.03125 -0.847656 3.03125 -0.734375 C 3.03125 -0.617188 2.992188 -0.515625 2.921875 -0.421875 C 2.816406 -0.273438 2.671875 -0.15625 2.484375 -0.0625 C 2.304688 0.0195312 2.09375 0.0625 1.84375 0.0625 C 1.507812 0.0625 1.222656 -0.00390625 0.984375 -0.140625 C 0.742188 -0.273438 0.554688 -0.460938 0.421875 -0.703125 C 0.296875 -0.953125 0.234375 -1.238281 0.234375 -1.5625 C 0.234375 -1.882812 0.296875 -2.164062 0.421875 -2.40625 C 0.554688 -2.644531 0.738281 -2.828125 0.96875 -2.953125 C 1.207031 -3.078125 1.476562 -3.140625 1.78125 -3.140625 C 2.03125 -3.140625 2.257812 -3.085938 2.46875 -2.984375 C 2.675781 -2.878906 2.84375 -2.71875 2.96875 -2.5 C 3.09375 -2.28125 3.15625 -2.015625 3.15625 -1.703125 Z M 1.75 -2.421875 C 1.476562 -2.421875 1.3125 -2.253906 1.25 -1.921875 L 2.15625 -1.921875 C 2.164062 -1.941406 2.171875 -1.976562 2.171875 -2.03125 C 2.171875 -2.15625 2.128906 -2.25 2.046875 -2.3125 C 1.972656 -2.382812 1.875 -2.421875 1.75 -2.421875 Z M 1.75 -2.421875 "/></g></g></g><g fill="#ffffff" fill-opacity="1"><g transform="translate(76.034304, 14.859165)"><g><path d="M 2.5 -3.140625 C 2.707031 -3.140625 2.863281 -3.082031 2.96875 -2.96875 C 3.082031 -2.851562 3.140625 -2.695312 3.140625 -2.5 C 3.140625 -2.320312 3.085938 -2.175781 2.984375 -2.0625 C 2.878906 -1.957031 2.734375 -1.90625 2.546875 -1.90625 C 2.421875 -1.90625 2.3125 -1.941406 2.21875 -2.015625 C 2.125 -2.085938 2.0625 -2.1875 2.03125 -2.3125 C 1.914062 -2.257812 1.816406 -2.171875 1.734375 -2.046875 C 1.660156 -1.921875 1.625 -1.78125 1.625 -1.625 L 1.625 -0.828125 L 1.828125 -0.828125 C 1.910156 -0.828125 1.976562 -0.800781 2.03125 -0.75 C 2.082031 -0.707031 2.109375 -0.640625 2.109375 -0.546875 L 2.109375 -0.265625 C 2.109375 -0.171875 2.082031 -0.101562 2.03125 -0.0625 C 1.976562 -0.0195312 1.910156 0 1.828125 0 L 0.5625 0 C 0.46875 0 0.394531 -0.0195312 0.34375 -0.0625 C 0.289062 -0.101562 0.265625 -0.171875 0.265625 -0.265625 L 0.265625 -0.546875 C 0.265625 -0.640625 0.289062 -0.707031 0.34375 -0.75 C 0.394531 -0.800781 0.46875 -0.828125 0.5625 -0.828125 L 0.640625 -0.828125 L 0.640625 -2.265625 L 0.5625 -2.265625 C 0.46875 -2.265625 0.394531 -2.285156 0.34375 -2.328125 C 0.289062 -2.378906 0.265625 -2.453125 0.265625 -2.546875 L 0.265625 -2.8125 C 0.265625 -2.90625 0.289062 -2.972656 0.34375 -3.015625 C 0.394531 -3.066406 0.46875 -3.09375 0.5625 -3.09375 L 1.328125 -3.09375 C 1.410156 -3.09375 1.476562 -3.0625 1.53125 -3 C 1.59375 -2.9375 1.625 -2.863281 1.625 -2.78125 L 1.625 -2.40625 C 1.695312 -2.625 1.8125 -2.800781 1.96875 -2.9375 C 2.132812 -3.070312 2.3125 -3.140625 2.5 -3.140625 Z M 2.5 -3.140625 "/></g></g></g><g fill="#ffffff" fill-opacity="1"><g transform="translate(79.307177, 14.859165)"><g/></g></g><g fill="#ffffff" fill-opacity="1"><g transform="translate(81.06094, 14.859165)"><g><path d="M 3.421875 -1.515625 C 3.515625 -1.515625 3.582031 -1.488281 3.625 -1.4375 C 3.675781 -1.382812 3.703125 -1.3125 3.703125 -1.21875 L 3.703125 -0.359375 C 3.703125 -0.253906 3.664062 -0.164062 3.59375 -0.09375 C 3.53125 -0.03125 3.441406 0 3.328125 0 L 0.609375 0 C 0.515625 0 0.441406 -0.0195312 0.390625 -0.0625 C 0.335938 -0.101562 0.3125 -0.171875 0.3125 -0.265625 L 0.3125 -0.546875 C 0.3125 -0.640625 0.335938 -0.707031 0.390625 -0.75 C 0.441406 -0.800781 0.515625 -0.828125 0.609375 -0.828125 L 0.703125 -0.828125 L 0.703125 -3.5 L 0.609375 -3.5 C 0.515625 -3.5 0.441406 -3.519531 0.390625 -3.5625 C 0.335938 -3.613281 0.3125 -3.6875 0.3125 -3.78125 L 0.3125 -4.046875 C 0.3125 -4.140625 0.335938 -4.207031 0.390625 -4.25 C 0.441406 -4.300781 0.515625 -4.328125 0.609375 -4.328125 L 3.296875 -4.328125 C 3.398438 -4.328125 3.484375 -4.289062 3.546875 -4.21875 C 3.617188 -4.144531 3.65625 -4.054688 3.65625 -3.953125 L 3.65625 -3.203125 C 3.65625 -3.109375 3.632812 -3.035156 3.59375 -2.984375 C 3.550781 -2.929688 3.484375 -2.90625 3.390625 -2.90625 L 3.109375 -2.90625 C 2.929688 -2.90625 2.84375 -3.003906 2.84375 -3.203125 L 2.84375 -3.5 L 1.6875 -3.5 L 1.6875 -2.640625 L 2.59375 -2.640625 C 2.675781 -2.640625 2.742188 -2.609375 2.796875 -2.546875 C 2.859375 -2.492188 2.890625 -2.425781 2.890625 -2.34375 L 2.890625 -2.125 C 2.890625 -2.039062 2.859375 -1.96875 2.796875 -1.90625 C 2.742188 -1.851562 2.675781 -1.828125 2.59375 -1.828125 L 1.6875 -1.828125 L 1.6875 -0.828125 L 2.875 -0.828125 L 2.875 -1.21875 C 2.875 -1.3125 2.894531 -1.382812 2.9375 -1.4375 C 2.988281 -1.488281 3.0625 -1.515625 3.15625 -1.515625 Z M 3.421875 -1.515625 "/></g></g></g><g fill="#ffffff" fill-opacity="1"><g transform="translate(85.03161, 14.859165)"><g><path d="M 3.46875 -0.828125 C 3.550781 -0.828125 3.617188 -0.800781 3.671875 -0.75 C 3.734375 -0.707031 3.765625 -0.640625 3.765625 -0.546875 L 3.765625 -0.265625 C 3.765625 -0.171875 3.734375 -0.101562 3.671875 -0.0625 C 3.617188 -0.0195312 3.550781 0 3.46875 0 L 2.703125 0 C 2.609375 0 2.53125 -0.0234375 2.46875 -0.078125 C 2.414062 -0.140625 2.390625 -0.21875 2.390625 -0.3125 L 2.390625 -0.5625 C 2.316406 -0.375 2.191406 -0.222656 2.015625 -0.109375 C 1.847656 0.00390625 1.660156 0.0625 1.453125 0.0625 C 1.085938 0.0625 0.796875 -0.0703125 0.578125 -0.34375 C 0.367188 -0.625 0.265625 -1 0.265625 -1.46875 C 0.265625 -2 0.382812 -2.410156 0.625 -2.703125 C 0.863281 -2.992188 1.207031 -3.140625 1.65625 -3.140625 C 1.957031 -3.140625 2.203125 -3.035156 2.390625 -2.828125 L 2.390625 -3.75 L 2.296875 -3.75 C 2.210938 -3.75 2.140625 -3.769531 2.078125 -3.8125 C 2.023438 -3.851562 2 -3.925781 2 -4.03125 L 2 -4.296875 C 2 -4.390625 2.023438 -4.457031 2.078125 -4.5 C 2.140625 -4.539062 2.210938 -4.5625 2.296875 -4.5625 L 3.0625 -4.5625 C 3.15625 -4.5625 3.226562 -4.53125 3.28125 -4.46875 C 3.34375 -4.414062 3.375 -4.347656 3.375 -4.265625 L 3.375 -0.828125 Z M 1.78125 -0.734375 C 1.945312 -0.734375 2.085938 -0.8125 2.203125 -0.96875 C 2.328125 -1.132812 2.390625 -1.335938 2.390625 -1.578125 L 2.390625 -2.109375 C 2.328125 -2.179688 2.242188 -2.238281 2.140625 -2.28125 C 2.035156 -2.320312 1.925781 -2.34375 1.8125 -2.34375 C 1.632812 -2.34375 1.492188 -2.269531 1.390625 -2.125 C 1.296875 -1.976562 1.25 -1.769531 1.25 -1.5 C 1.25 -1.257812 1.296875 -1.070312 1.390625 -0.9375 C 1.484375 -0.800781 1.613281 -0.734375 1.78125 -0.734375 Z M 1.78125 -0.734375 "/></g></g></g><g fill="#ffffff" fill-opacity="1"><g transform="translate(88.952882, 14.859165)"><g><path d="M 3.515625 -0.828125 C 3.597656 -0.828125 3.664062 -0.800781 3.71875 -0.75 C 3.78125 -0.707031 3.8125 -0.640625 3.8125 -0.546875 L 3.8125 -0.265625 C 3.8125 -0.171875 3.78125 -0.101562 3.71875 -0.0625 C 3.664062 -0.0195312 3.597656 0 3.515625 0 L 2.75 0 C 2.65625 0 2.578125 -0.0234375 2.515625 -0.078125 C 2.460938 -0.140625 2.4375 -0.21875 2.4375 -0.3125 L 2.4375 -0.59375 C 2.363281 -0.394531 2.242188 -0.234375 2.078125 -0.109375 C 1.921875 0.00390625 1.753906 0.0625 1.578125 0.0625 C 1.242188 0.0625 0.984375 -0.0390625 0.796875 -0.25 C 0.617188 -0.46875 0.53125 -0.769531 0.53125 -1.15625 L 0.53125 -2.265625 L 0.4375 -2.265625 C 0.34375 -2.265625 0.269531 -2.285156 0.21875 -2.328125 C 0.164062 -2.378906 0.140625 -2.453125 0.140625 -2.546875 L 0.140625 -2.8125 C 0.140625 -2.90625 0.164062 -2.972656 0.21875 -3.015625 C 0.269531 -3.066406 0.34375 -3.09375 0.4375 -3.09375 L 1.203125 -3.09375 C 1.285156 -3.09375 1.351562 -3.0625 1.40625 -3 C 1.46875 -2.9375 1.5 -2.863281 1.5 -2.78125 L 1.5 -1.453125 C 1.5 -1.179688 1.523438 -0.992188 1.578125 -0.890625 C 1.628906 -0.785156 1.722656 -0.734375 1.859375 -0.734375 C 2.023438 -0.734375 2.160156 -0.800781 2.265625 -0.9375 C 2.378906 -1.082031 2.4375 -1.253906 2.4375 -1.453125 L 2.4375 -2.265625 L 2.34375 -2.265625 C 2.257812 -2.265625 2.191406 -2.285156 2.140625 -2.328125 C 2.085938 -2.378906 2.0625 -2.453125 2.0625 -2.546875 L 2.0625 -2.8125 C 2.0625 -2.90625 2.085938 -2.972656 2.140625 -3.015625 C 2.191406 -3.066406 2.257812 -3.09375 2.34375 -3.09375 L 3.109375 -3.09375 C 3.203125 -3.09375 3.273438 -3.0625 3.328125 -3 C 3.390625 -2.9375 3.421875 -2.863281 3.421875 -2.78125 L 3.421875 -0.828125 Z M 3.515625 -0.828125 "/></g></g></g><g fill="#ffffff" fill-opacity="1"><g transform="translate(92.91738, 14.859165)"><g><path d="M 2.65625 -1.0625 C 2.757812 -1.0625 2.847656 -1.035156 2.921875 -0.984375 C 2.992188 -0.929688 3.03125 -0.847656 3.03125 -0.734375 C 3.03125 -0.617188 2.992188 -0.515625 2.921875 -0.421875 C 2.816406 -0.273438 2.671875 -0.15625 2.484375 -0.0625 C 2.304688 0.0195312 2.09375 0.0625 1.84375 0.0625 C 1.507812 0.0625 1.222656 -0.00390625 0.984375 -0.140625 C 0.742188 -0.273438 0.554688 -0.460938 0.421875 -0.703125 C 0.296875 -0.953125 0.234375 -1.238281 0.234375 -1.5625 C 0.234375 -1.882812 0.300781 -2.164062 0.4375 -2.40625 C 0.570312 -2.644531 0.753906 -2.828125 0.984375 -2.953125 C 1.222656 -3.078125 1.492188 -3.140625 1.796875 -3.140625 C 2.046875 -3.140625 2.269531 -3.097656 2.46875 -3.015625 C 2.664062 -2.929688 2.816406 -2.8125 2.921875 -2.65625 C 3.035156 -2.507812 3.09375 -2.34375 3.09375 -2.15625 C 3.09375 -1.988281 3.039062 -1.851562 2.9375 -1.75 C 2.832031 -1.65625 2.691406 -1.609375 2.515625 -1.609375 C 2.335938 -1.609375 2.195312 -1.65625 2.09375 -1.75 C 1.988281 -1.84375 1.9375 -1.96875 1.9375 -2.125 C 1.9375 -2.1875 1.941406 -2.242188 1.953125 -2.296875 C 1.890625 -2.328125 1.820312 -2.34375 1.75 -2.34375 C 1.570312 -2.34375 1.441406 -2.273438 1.359375 -2.140625 C 1.273438 -2.015625 1.234375 -1.820312 1.234375 -1.5625 C 1.234375 -1.3125 1.289062 -1.109375 1.40625 -0.953125 C 1.519531 -0.804688 1.679688 -0.734375 1.890625 -0.734375 C 2.003906 -0.734375 2.09375 -0.75 2.15625 -0.78125 C 2.226562 -0.8125 2.300781 -0.863281 2.375 -0.9375 C 2.46875 -1.019531 2.5625 -1.0625 2.65625 -1.0625 Z M 2.65625 -1.0625 "/></g></g></g><g fill="#ffffff" fill-opacity="1"><g transform="translate(96.24583, 14.859165)"><g><path d="M 3.109375 -0.828125 C 3.191406 -0.828125 3.257812 -0.800781 3.3125 -0.75 C 3.375 -0.707031 3.40625 -0.640625 3.40625 -0.546875 L 3.40625 -0.265625 C 3.40625 -0.171875 3.375 -0.101562 3.3125 -0.0625 C 3.257812 -0.0195312 3.191406 0 3.109375 0 L 2.34375 0 C 2.257812 0 2.1875 -0.0234375 2.125 -0.078125 C 2.070312 -0.140625 2.046875 -0.21875 2.046875 -0.3125 L 2.046875 -0.578125 C 1.960938 -0.390625 1.835938 -0.234375 1.671875 -0.109375 C 1.515625 0.00390625 1.347656 0.0625 1.171875 0.0625 C 0.890625 0.0625 0.660156 -0.0195312 0.484375 -0.1875 C 0.316406 -0.351562 0.234375 -0.578125 0.234375 -0.859375 C 0.234375 -1.179688 0.332031 -1.414062 0.53125 -1.5625 C 0.738281 -1.707031 1.054688 -1.78125 1.484375 -1.78125 C 1.648438 -1.78125 1.835938 -1.765625 2.046875 -1.734375 L 2.046875 -1.9375 C 2.046875 -2.082031 2.003906 -2.195312 1.921875 -2.28125 C 1.835938 -2.363281 1.726562 -2.40625 1.59375 -2.40625 C 1.507812 -2.40625 1.4375 -2.390625 1.375 -2.359375 C 1.363281 -2.242188 1.3125 -2.144531 1.21875 -2.0625 C 1.125 -1.988281 1.007812 -1.953125 0.875 -1.953125 C 0.726562 -1.953125 0.609375 -1.992188 0.515625 -2.078125 C 0.421875 -2.171875 0.375 -2.289062 0.375 -2.4375 C 0.375 -2.65625 0.484375 -2.828125 0.703125 -2.953125 C 0.921875 -3.078125 1.210938 -3.140625 1.578125 -3.140625 C 2.054688 -3.140625 2.414062 -3.019531 2.65625 -2.78125 C 2.894531 -2.550781 3.015625 -2.222656 3.015625 -1.796875 L 3.015625 -0.828125 Z M 1.484375 -0.640625 C 1.628906 -0.640625 1.753906 -0.695312 1.859375 -0.8125 C 1.960938 -0.9375 2.019531 -1.085938 2.03125 -1.265625 C 1.882812 -1.273438 1.75 -1.28125 1.625 -1.28125 C 1.476562 -1.28125 1.367188 -1.25 1.296875 -1.1875 C 1.234375 -1.132812 1.203125 -1.046875 1.203125 -0.921875 C 1.203125 -0.835938 1.226562 -0.769531 1.28125 -0.71875 C 1.34375 -0.664062 1.410156 -0.640625 1.484375 -0.640625 Z M 1.484375 -0.640625 "/></g></g></g><g fill="#ffffff" fill-opacity="1"><g transform="translate(99.728661, 14.859165)"><g><path d="M 2.46875 -1.09375 C 2.582031 -1.09375 2.675781 -1.054688 2.75 -0.984375 C 2.832031 -0.921875 2.875 -0.84375 2.875 -0.75 C 2.875 -0.632812 2.835938 -0.53125 2.765625 -0.4375 C 2.523438 -0.101562 2.21875 0.0625 1.84375 0.0625 C 1.03125 0.0625 0.625 -0.382812 0.625 -1.28125 L 0.625 -2.28125 L 0.40625 -2.28125 C 0.320312 -2.28125 0.25 -2.304688 0.1875 -2.359375 C 0.132812 -2.421875 0.109375 -2.5 0.109375 -2.59375 L 0.109375 -2.78125 C 0.109375 -2.863281 0.132812 -2.9375 0.1875 -3 C 0.25 -3.0625 0.320312 -3.09375 0.40625 -3.09375 L 0.625 -3.09375 L 0.625 -3.625 C 0.625 -3.71875 0.648438 -3.789062 0.703125 -3.84375 C 0.765625 -3.90625 0.84375 -3.9375 0.9375 -3.9375 L 1.296875 -3.9375 C 1.378906 -3.9375 1.445312 -3.90625 1.5 -3.84375 C 1.5625 -3.789062 1.59375 -3.71875 1.59375 -3.625 L 1.59375 -3.09375 L 2.21875 -3.09375 C 2.3125 -3.09375 2.382812 -3.0625 2.4375 -3 C 2.5 -2.9375 2.53125 -2.863281 2.53125 -2.78125 L 2.53125 -2.59375 C 2.53125 -2.5 2.5 -2.421875 2.4375 -2.359375 C 2.382812 -2.304688 2.3125 -2.28125 2.21875 -2.28125 L 1.59375 -2.28125 L 1.59375 -1.125 C 1.59375 -1.007812 1.617188 -0.914062 1.671875 -0.84375 C 1.722656 -0.769531 1.796875 -0.734375 1.890625 -0.734375 C 1.960938 -0.734375 2.019531 -0.75 2.0625 -0.78125 C 2.101562 -0.8125 2.148438 -0.863281 2.203125 -0.9375 C 2.242188 -1 2.28125 -1.039062 2.3125 -1.0625 C 2.351562 -1.082031 2.40625 -1.09375 2.46875 -1.09375 Z M 2.46875 -1.09375 "/></g></g></g><g fill="#ffffff" fill-opacity="1"><g transform="translate(102.723646, 14.859165)"><g><path d="M 1.03125 -3.53125 C 0.851562 -3.53125 0.703125 -3.585938 0.578125 -3.703125 C 0.460938 -3.816406 0.40625 -3.960938 0.40625 -4.140625 C 0.40625 -4.316406 0.460938 -4.460938 0.578125 -4.578125 C 0.703125 -4.691406 0.851562 -4.75 1.03125 -4.75 C 1.195312 -4.75 1.335938 -4.691406 1.453125 -4.578125 C 1.578125 -4.460938 1.640625 -4.316406 1.640625 -4.140625 C 1.640625 -3.960938 1.578125 -3.816406 1.453125 -3.703125 C 1.335938 -3.585938 1.195312 -3.53125 1.03125 -3.53125 Z M 0.5625 0 C 0.46875 0 0.394531 -0.0195312 0.34375 -0.0625 C 0.289062 -0.101562 0.265625 -0.171875 0.265625 -0.265625 L 0.265625 -0.546875 C 0.265625 -0.640625 0.289062 -0.707031 0.34375 -0.75 C 0.394531 -0.800781 0.46875 -0.828125 0.5625 -0.828125 L 0.640625 -0.828125 L 0.640625 -2.265625 L 0.5625 -2.265625 C 0.46875 -2.265625 0.394531 -2.285156 0.34375 -2.328125 C 0.289062 -2.378906 0.265625 -2.453125 0.265625 -2.546875 L 0.265625 -2.8125 C 0.265625 -2.90625 0.289062 -2.972656 0.34375 -3.015625 C 0.394531 -3.066406 0.46875 -3.09375 0.5625 -3.09375 L 1.328125 -3.09375 C 1.410156 -3.09375 1.476562 -3.0625 1.53125 -3 C 1.59375 -2.9375 1.625 -2.863281 1.625 -2.78125 L 1.625 -0.828125 L 1.71875 -0.828125 C 1.8125 -0.828125 1.882812 -0.800781 1.9375 -0.75 C 1.988281 -0.707031 2.015625 -0.640625 2.015625 -0.546875 L 2.015625 -0.265625 C 2.015625 -0.171875 1.988281 -0.101562 1.9375 -0.0625 C 1.882812 -0.0195312 1.8125 0 1.71875 0 Z M 0.5625 0 "/></g></g></g><g fill="#ffffff" fill-opacity="1"><g transform="translate(104.891155, 14.859165)"><g><path d="M 1.78125 0.0625 C 1.289062 0.0625 0.910156 -0.0703125 0.640625 -0.34375 C 0.367188 -0.625 0.234375 -1.007812 0.234375 -1.5 C 0.234375 -2.019531 0.375 -2.421875 0.65625 -2.703125 C 0.945312 -2.992188 1.34375 -3.140625 1.84375 -3.140625 C 2.332031 -3.140625 2.707031 -3.003906 2.96875 -2.734375 C 3.238281 -2.460938 3.375 -2.082031 3.375 -1.59375 C 3.375 -1.070312 3.234375 -0.664062 2.953125 -0.375 C 2.671875 -0.0820312 2.28125 0.0625 1.78125 0.0625 Z M 1.796875 -0.734375 C 1.992188 -0.734375 2.140625 -0.800781 2.234375 -0.9375 C 2.335938 -1.070312 2.390625 -1.285156 2.390625 -1.578125 C 2.390625 -1.835938 2.34375 -2.03125 2.25 -2.15625 C 2.15625 -2.28125 2.015625 -2.34375 1.828125 -2.34375 C 1.640625 -2.34375 1.492188 -2.269531 1.390625 -2.125 C 1.285156 -1.988281 1.234375 -1.785156 1.234375 -1.515625 C 1.234375 -1.265625 1.28125 -1.070312 1.375 -0.9375 C 1.46875 -0.800781 1.609375 -0.734375 1.796875 -0.734375 Z M 1.796875 -0.734375 "/></g></g></g><g fill="#ffffff" fill-opacity="1"><g transform="translate(108.516016, 14.859165)"><g><path d="M 3.671875 -0.828125 C 3.753906 -0.828125 3.820312 -0.800781 3.875 -0.75 C 3.9375 -0.707031 3.96875 -0.640625 3.96875 -0.546875 L 3.96875 -0.265625 C 3.96875 -0.171875 3.9375 -0.101562 3.875 -0.0625 C 3.820312 -0.0195312 3.753906 0 3.671875 0 L 2.5625 0 C 2.46875 0 2.394531 -0.0195312 2.34375 -0.0625 C 2.289062 -0.101562 2.265625 -0.171875 2.265625 -0.265625 L 2.265625 -0.546875 C 2.265625 -0.640625 2.289062 -0.707031 2.34375 -0.75 C 2.394531 -0.800781 2.46875 -0.828125 2.5625 -0.828125 L 2.609375 -0.828125 L 2.609375 -1.625 C 2.609375 -1.894531 2.578125 -2.082031 2.515625 -2.1875 C 2.460938 -2.289062 2.363281 -2.34375 2.21875 -2.34375 C 2.0625 -2.34375 1.921875 -2.269531 1.796875 -2.125 C 1.679688 -1.988281 1.625 -1.828125 1.625 -1.640625 L 1.625 -0.828125 L 1.671875 -0.828125 C 1.753906 -0.828125 1.820312 -0.800781 1.875 -0.75 C 1.925781 -0.707031 1.953125 -0.640625 1.953125 -0.546875 L 1.953125 -0.265625 C 1.953125 -0.171875 1.925781 -0.101562 1.875 -0.0625 C 1.820312 -0.0195312 1.753906 0 1.671875 0 L 0.5625 0 C 0.46875 0 0.394531 -0.0195312 0.34375 -0.0625 C 0.289062 -0.101562 0.265625 -0.171875 0.265625 -0.265625 L 0.265625 -0.546875 C 0.265625 -0.640625 0.289062 -0.707031 0.34375 -0.75 C 0.394531 -0.800781 0.46875 -0.828125 0.5625 -0.828125 L 0.640625 -0.828125 L 0.640625 -2.265625 L 0.5625 -2.265625 C 0.46875 -2.265625 0.394531 -2.285156 0.34375 -2.328125 C 0.289062 -2.378906 0.265625 -2.453125 0.265625 -2.546875 L 0.265625 -2.8125 C 0.265625 -2.90625 0.289062 -2.972656 0.34375 -3.015625 C 0.394531 -3.066406 0.46875 -3.09375 0.5625 -3.09375 L 1.328125 -3.09375 C 1.410156 -3.09375 1.476562 -3.0625 1.53125 -3 C 1.59375 -2.9375 1.625 -2.863281 1.625 -2.78125 L 1.625 -2.5 C 1.695312 -2.6875 1.816406 -2.835938 1.984375 -2.953125 C 2.148438 -3.078125 2.328125 -3.140625 2.515625 -3.140625 C 2.847656 -3.140625 3.109375 -3.03125 3.296875 -2.8125 C 3.484375 -2.601562 3.578125 -2.304688 3.578125 -1.921875 L 3.578125 -0.828125 Z M 3.671875 -0.828125 "/></g></g></g></svg>